<svg id="Layer_1" data-name="Layer 1" xmlns="http://www.w3.org/2000/svg" viewBox="0 0 550.12 652.07"><title>mood-drone-illustrator-01</title><g id="mood-drone"><g id="main"><g id="Outline"><rect id="Dark_Pastel" data-name="Dark Pastel" x="7.01" y="35.01" width="534.98" height="617.05" fill="#b98656"/><g id="Pastel"><rect x="39.05" y="27.05" width="462.91" height="624.74" fill="#e6dad1"/><rect x="39.9" y="27.9" width="461.21" height="623.04" fill="none" stroke="#c6b2a2" stroke-width="1.7"/></g><rect id="Dark_rectangle_box" data-name="Dark rectangle box" x="60.11" y="54.11" width="419.77" height="597.68" fill="#2f232a"/></g><g id="Bottom"><path id="Path_48" data-name="Path 48" d="M165,505.05h210.7V651.58H165Z" fill="#675858"/><rect id="Rectangle_24" data-name="Rectangle 24" x="164.99" y="504.05" width="210.7" height="13" fill="#e6dad1"/><rect id="Rectangle_25" data-name="Rectangle 25" x="165.13" y="470.05" width="210.56" height="34" fill="#2f232a"/><g id="Sticker"><path id="Path_45" data-name="Path 45" d="M268.61,465.05h74l-3.5,29.14-4.62,4.59-6.94,3-51.34.64-1.35-1.33-2.22-1.67Z" fill="#cd9b48"/><g id="Path_53" data-name="Path 53"><path d="M272.66,499.46a11.48,11.48,0,0,0,1.86-.15,14.22,14.22,0,0,0,1.94-.52l-.47.78-1.71.77Z" fill="#fff"/><path d="M274.28,500.34l-1.62-.88a10.63,10.63,0,0,0,1.86-.15c.33-.06.67-.14,1-.22.56-.15,1-.29,1-.29l-.47.77Z" fill="#ac884d"/></g><g id="MOOD_DRONE" data-name="MOOD DRONE" opacity="0.9" style="isolation:isolate"><text transform="translate(283.33 485.05)" font-size="14" fill="#fff9f5" font-family="ArchitectsDaughter-Regular, Architects Daughter" style="isolation:isolate">MOOD </text><text transform="translate(280.29 499.05)" font-size="14" fill="#fff9f5" font-family="ArchitectsDaughter-Regular, Architects Daughter" style="isolation:isolate">DRONE</text></g><path id="Path_47" data-name="Path 47" d="M330,490.66a9.14,9.14,0,0,0,3.67,2.93c1.95.62,5.51-.07,5.51-.07v.55l-.86,1.14-9.16-1.44Z" fill="#ac884d"/><path id="Path_46" data-name="Path 46" d="M327.51,501.85s1.72-13.1,2.52-10.93,1.28,2.63,3.84,3.3a11.45,11.45,0,0,0,5.24-.08,13.92,13.92,0,0,1-11.6,7.71" fill="#f9e2bb"/><path id="Path_52" data-name="Path 52" d="M276.09,502.45c0-.24.47-3.86.47-3.86a4.55,4.55,0,0,1-1.91,1.05,4.46,4.46,0,0,1-2-.19Z" fill="#f9e2bb"/></g><g id="MK_I_sleeping_toolkit" data-name="MK I sleeping toolkit" style="isolation:isolate"><text transform="translate(285.61 513.05)" font-size="8" fill="#1c1519" font-family="IBMPlexSans, IBM Plex Sans" style="isolation:isolate">MK I sleeping <tspan x="50.7" y="0" letter-spacing="0em">t</tspan><tspan x="53.47" y="0">oolkit</tspan></text></g></g><g id="Secondary_Control_Panel" data-name="Secondary Control Panel"><rect id="Rectangle_3" data-name="Rectangle 3" x="220.41" y="289.05" width="107.2" height="48" fill="#241a20"/><g id="Rectangle_4" data-name="Rectangle 4"><rect x="219.4" y="274.05" width="103.19" height="48" fill="#241a20"/><rect x="220.6" y="275.25" width="100.79" height="45.6" fill="none" stroke="#362d2e" stroke-width="2.4"/></g><g id="Rectangle_2-2" data-name="Rectangle 2-2"><rect x="217.4" y="272.05" width="107.2" height="50" fill="none"/><rect x="218.6" y="273.25" width="104.8" height="47.6" fill="none" stroke="#493c3e" stroke-width="2.4"/></g><g id="circlepad"><g id="Ellipse_10-3" data-name="Ellipse 10-3"><ellipse cx="123.73" cy="515.55" rx="16.53" ry="16.5" fill="#20161d"/><ellipse cx="123.73" cy="515.55" rx="15.63" ry="15.6" fill="none" stroke="#726464" stroke-width="1.8"/></g><g id="Ellipse_9-3" data-name="Ellipse 9-3"><ellipse cx="122.73" cy="514.55" rx="16.53" ry="16.5" fill="#20161d"/><ellipse cx="122.73" cy="514.55" rx="15.63" ry="15.6" fill="none" stroke="#9b8c8c" stroke-width="1.8"/></g></g><g id="circlepad-2"><g id="Ellipse_10-4" data-name="Ellipse 10-4"><ellipse cx="124.03" cy="465.63" rx="16.37" ry="16.34" transform="translate(-48.18 15.59) rotate(-6.02)" fill="#20161d"/><ellipse cx="124.03" cy="465.63" rx="15.48" ry="15.45" transform="translate(-48.18 15.59) rotate(-6.02)" fill="none" stroke="#726464" stroke-width="1.8"/></g><g id="Ellipse_9-4" data-name="Ellipse 9-4"><ellipse cx="124.92" cy="464.53" rx="16.37" ry="16.34" transform="translate(-48.06 15.68) rotate(-6.02)" fill="#20161d"/><ellipse cx="124.92" cy="464.53" rx="15.48" ry="15.45" transform="translate(-48.06 15.68) rotate(-6.02)" fill="none" stroke="#9b8c8c" stroke-width="1.8"/></g></g><g id="Ellipse_11-2" data-name="Ellipse 11-2"><ellipse cx="428.29" cy="338.55" rx="20.54" ry="20.5" fill="#271d23"/><ellipse cx="428.29" cy="338.55" rx="19.64" ry="19.6" fill="none" stroke="#9b8c8c" stroke-width="1.8"/></g><ellipse id="Ellipse_17-2" data-name="Ellipse 17-2" cx="165.85" cy="374.25" rx="15.45" ry="15.42" transform="translate(-36.77 18.56) rotate(-5.77)" fill="#20161d"/><g id="Group_1" data-name="Group 1"><g id="Rectangle_5" data-name="Rectangle 5"><rect x="476.95" y="385.05" width="8.07" height="95" fill="#241a20"/><rect x="478.15" y="386.25" width="5.67" height="92.6" fill="none" stroke="#493c3e" stroke-width="2.4"/></g><rect id="Rectangle_6" data-name="Rectangle 6" x="476.95" y="387.05" width="8.07" height="93" fill="#241a20"/></g><g id="microdots"><g id="Group_2" data-name="Group 2"><line id="Line_1" data-name="Line 1" x1="121.72" y1="403.74" x2="123.54" y2="405.55" fill="none" stroke="#2f232a" stroke-width="0.6"/><line id="Line_2" data-name="Line 2" x1="123.54" y1="403.74" x2="121.72" y2="405.55" fill="none" stroke="#2f232a" stroke-width="0.6"/></g><g id="Group_3" data-name="Group 3"><line id="Line_1-2" data-name="Line 1-2" x1="419.27" y1="405.74" x2="421.09" y2="407.55" fill="none" stroke="#2f232a" stroke-width="0.6"/><line id="Line_2-2" data-name="Line 2-2" x1="421.09" y1="405.74" x2="419.27" y2="407.55" fill="none" stroke="#2f232a" stroke-width="0.6"/></g><g id="Group_11" data-name="Group 11"><g id="Ellipse_19-4" data-name="Ellipse 19-4"><ellipse cx="419.65" cy="403.05" rx="5.01" ry="5" fill="#675858"/><ellipse cx="419.65" cy="403.05" rx="4.51" ry="4.5" fill="none" stroke="#5d5555"/></g><line id="Line_3" data-name="Line 3" x1="418" y1="405.09" x2="421.54" y2="401.56" fill="none" stroke="#1c1519"/><line id="Line_4" data-name="Line 4" x1="418" y1="401.55" x2="421.54" y2="405.09" fill="none" stroke="#1c1519"/></g><g id="Group_12" data-name="Group 12"><g id="Ellipse_19-5" data-name="Ellipse 19-5"><ellipse cx="186.65" cy="487.05" rx="5.01" ry="5" fill="#675858"/><ellipse cx="186.65" cy="487.05" rx="4.51" ry="4.5" fill="none" stroke="#5d5555"/></g><line id="Line_3-2" data-name="Line 3-2" x1="185" y1="489.09" x2="188.54" y2="485.56" fill="none" stroke="#1c1519"/><line id="Line_4-2" data-name="Line 4-2" x1="185" y1="485.55" x2="188.54" y2="489.09" fill="none" stroke="#1c1519"/></g></g><g id="circlepad-3"><g id="Path_49-2" data-name="Path 49-2"><path d="M420.23,442.52h0a21.15,21.15,0,0,1,16.15,1.27,21.06,21.06,0,0,1,9.24,28.4,20.94,20.94,0,0,1-5,6.38,21.24,21.24,0,0,1-7.31,4.12h0A21.12,21.12,0,0,1,407.92,453a21.05,21.05,0,0,1,12.31-10.5Z" fill="#20161d"/><path d="M420.51,443.38a20.07,20.07,0,0,0-7,3.94,20.24,20.24,0,0,0-6.91,13.56,20.27,20.27,0,0,0,4.87,15,20.09,20.09,0,0,0,6.12,4.77A20.22,20.22,0,0,0,433,481.84h0a20.19,20.19,0,0,0,13-25.47,20.26,20.26,0,0,0-25.53-13h0m-.56-1.71h0a22,22,0,1,1,13.65,41.88h0A22,22,0,1,1,420,441.67Z" fill="#726464"/></g><g id="Path_50-2" data-name="Path 50-2"><path d="M421.92,443.38h0a21.13,21.13,0,0,1,16.14,1.27,21.12,21.12,0,0,1,4.26,34.78,21.08,21.08,0,0,1-7.31,4.12h0a21.12,21.12,0,0,1-25.39-29.67,21.05,21.05,0,0,1,12.31-10.5Z" fill="#20161d"/><path d="M422.19,444.24a20.16,20.16,0,0,0-11.78,10.05,20.33,20.33,0,0,0-2.14,7.45,20.29,20.29,0,0,0,18.46,21.88,20.3,20.3,0,0,0,8-.92h0a20.19,20.19,0,0,0,13-25.47,20.24,20.24,0,0,0-25.54-13h0m-.55-1.71h0a22,22,0,1,1,13.64,41.87h0a22,22,0,1,1-13.64-41.88Z" fill="#9b8c8c"/></g></g><g id="Group_5" data-name="Group 5"><ellipse id="Ellipse_18-3" data-name="Ellipse 18-3" cx="165.85" cy="374.25" rx="15.45" ry="15.42" transform="translate(-36.77 18.56) rotate(-5.77)" fill="#20161d"/><g id="Group_4" data-name="Group 4"><path id="Path_14" data-name="Path 14" d="M160.39,375.72s-3.54-3.56-.15-7,7.24-.13,7.24-.13l28.33,28.29L188.73,404Z" fill="#675858"/><path id="Path_15" data-name="Path 15" d="M162.76,372.65h2.89l-2.37.88" fill="none" stroke="#31222b" opacity="0.68" style="isolation:isolate"/><path id="Path_16" data-name="Path 16" d="M161.77,372.19l1.55-.44,2.49.44h0" fill="none" stroke="#2f232a" opacity="0.79" style="isolation:isolate"/><path id="Path_17" data-name="Path 17" d="M168.73,381v-1.39l1.86.79.68,1.44.34,2h1l.51-2,.62-.87.9-1.36-4.83-.65-1-.14" fill="#2f232a" opacity="0.64" style="isolation:isolate"/><path id="Path_18" data-name="Path 18" d="M180.6,395.55l4.68,2.26-1.49,1,3.55-3.26,1,2.26,3,1,1-1V394.2l-1.76-2.75-3.75-3.38-6.21,3.87-.67.58-1.13,1.13" fill="#2f232a" opacity="0.64" style="isolation:isolate"/><path id="Path_19" data-name="Path 19" d="M163.69,370.88" fill="none" stroke="#707070"/></g></g><g id="Group_6" data-name="Group 6"><ellipse id="Ellipse_18-4" data-name="Ellipse 18-4" cx="383.25" cy="374.25" rx="15.45" ry="15.42" transform="translate(-35.67 40.41) rotate(-5.77)" fill="#20161d"/><g id="Group_4-2" data-name="Group 4-2"><path id="Path_14-2" data-name="Path 14-2" d="M377.53,369.65s3.56-3.55,7-.15.13,7.21.13,7.21L356.28,405l-7.09-7.07Z" fill="#675858"/><path id="Path_15-2" data-name="Path 15-2" d="M380.59,372v2.89l-.88-2.36" fill="none" stroke="#31222b" opacity="0.68" style="isolation:isolate"/><path id="Path_16-2" data-name="Path 16-2" d="M381.06,371l.44,1.56-.44,2.48h0" fill="none" stroke="#2f232a" opacity="0.79" style="isolation:isolate"/><path id="Path_17-2" data-name="Path 17-2" d="M372.24,378h1.39l-.79,1.86-1.45.67-2,.34v1l2,.5.87.62,1.37.9.65-4.81.14-1" fill="#2f232a" opacity="0.64" style="isolation:isolate"/><path id="Path_18-2" data-name="Path 18-2" d="M357.6,389.75,351.41,396l-1.14,2.23,7.36-1.73-2.27,1-1,3,1,1H359l2.76-1.75,3.39-3.74-3.92-6.24-.59-.67L359.5,388" fill="#2f232a" opacity="0.64" style="isolation:isolate"/><path id="Path_19-2" data-name="Path 19-2" d="M382.37,372.93" fill="none" stroke="#707070"/></g></g><rect id="Rectangle_15" data-name="Rectangle 15" x="322.59" y="394.05" width="51.09" height="77" fill="#1c1519"/><g id="Rectangle_16" data-name="Rectangle 16"><rect x="213.39" y="374.05" width="109.2" height="101" fill="#23191f"/><rect x="214.24" y="374.9" width="107.5" height="99.3" fill="none" stroke="#675858" stroke-width="1.7"/></g><rect id="Rectangle_18" data-name="Rectangle 18" x="162.3" y="394.05" width="51.09" height="77" fill="#1c1519"/><rect id="Rectangle_7" data-name="Rectangle 7" x="372.69" y="394.05" width="18.03" height="258" fill="#9b8c8c"/><rect id="Rectangle_8" data-name="Rectangle 8" x="462.85" y="244.05" width="18.03" height="408" fill="#7d7272"/><rect id="Rectangle_9" data-name="Rectangle 9" x="149.28" y="394.05" width="18.03" height="258" fill="#9b8c8c"/><rect id="Rectangle_10" data-name="Rectangle 10" x="60.11" y="272.05" width="18.03" height="380" fill="#7b7171"/><g id="Circlepad-4"><g id="Ellipse_15-3" data-name="Ellipse 15-3"><ellipse cx="349.14" cy="434.55" rx="14.53" ry="14.5" fill="#22181e"/><ellipse cx="349.14" cy="434.55" rx="13.48" ry="13.45" fill="none" stroke="#2f232a" stroke-width="2.1"/></g><ellipse id="Ellipse_16" data-name="Ellipse 16" cx="349.64" cy="435.05" rx="3.01" ry="3" fill="#1c1519"/></g><g id="Circlepad-5"><g id="Ellipse_15-4" data-name="Ellipse 15-4"><ellipse cx="187.85" cy="434.55" rx="14.53" ry="14.5" fill="#22181e"/><ellipse cx="187.85" cy="434.55" rx="13.48" ry="13.45" fill="none" stroke="#2f232a" stroke-width="2.1"/></g><ellipse id="Ellipse_16-2" data-name="Ellipse 16-2" cx="188.35" cy="435.05" rx="3.01" ry="3" fill="#1c1519"/></g><g id="Group_9" data-name="Group 9"><ellipse id="Ellipse_23" data-name="Ellipse 23" cx="222.41" cy="383.05" rx="3.01" ry="3" fill="#1c1519"/><ellipse id="Ellipse_34" data-name="Ellipse 34" cx="222.41" cy="394.05" rx="3.01" ry="3" fill="#1c1519"/><ellipse id="Ellipse_44" data-name="Ellipse 44" cx="222.41" cy="404.05" rx="3.01" ry="3" fill="#1c1519"/><ellipse id="Ellipse_54" data-name="Ellipse 54" cx="222.41" cy="414.05" rx="3.01" ry="3" fill="#1c1519"/><ellipse id="Ellipse_64" data-name="Ellipse 64" cx="222.41" cy="424.05" rx="3.01" ry="3" fill="#1c1519"/><ellipse id="Ellipse_74" data-name="Ellipse 74" cx="222.41" cy="434.05" rx="3.01" ry="3" fill="#1c1519"/><ellipse id="Ellipse_84" data-name="Ellipse 84" cx="222.41" cy="444.05" rx="3.01" ry="3" fill="#1c1519"/><ellipse id="Ellipse_94" data-name="Ellipse 94" cx="222.41" cy="454.05" rx="3.01" ry="3" fill="#1c1519"/><ellipse id="Ellipse_104" data-name="Ellipse 104" cx="222.41" cy="464.05" rx="3.01" ry="3" fill="#1c1519"/><ellipse id="Ellipse_24" data-name="Ellipse 24" cx="232.43" cy="383.05" rx="3.01" ry="3" fill="#1c1519"/><ellipse id="Ellipse_35" data-name="Ellipse 35" cx="232.43" cy="394.05" rx="3.01" ry="3" fill="#1c1519"/><ellipse id="Ellipse_45" data-name="Ellipse 45" cx="232.43" cy="404.05" rx="3.01" ry="3" fill="#1c1519"/><ellipse id="Ellipse_55" data-name="Ellipse 55" cx="232.43" cy="414.05" rx="3.01" ry="3" fill="#1c1519"/><ellipse id="Ellipse_65" data-name="Ellipse 65" cx="232.43" cy="424.05" rx="3.01" ry="3" fill="#1c1519"/><ellipse id="Ellipse_75" data-name="Ellipse 75" cx="232.43" cy="434.05" rx="3.01" ry="3" fill="#1c1519"/><ellipse id="Ellipse_85" data-name="Ellipse 85" cx="232.43" cy="444.05" rx="3.01" ry="3" fill="#1c1519"/><ellipse id="Ellipse_95" data-name="Ellipse 95" cx="232.43" cy="454.05" rx="3.01" ry="3" fill="#1c1519"/><ellipse id="Ellipse_105" data-name="Ellipse 105" cx="232.43" cy="464.05" rx="3.01" ry="3" fill="#1c1519"/><ellipse id="Ellipse_25" data-name="Ellipse 25" cx="242.45" cy="383.05" rx="3.01" ry="3" fill="#1c1519"/><ellipse id="Ellipse_36" data-name="Ellipse 36" cx="242.45" cy="394.05" rx="3.01" ry="3" fill="#1c1519"/><ellipse id="Ellipse_46" data-name="Ellipse 46" cx="242.45" cy="404.05" rx="3.01" ry="3" fill="#1c1519"/><ellipse id="Ellipse_56" data-name="Ellipse 56" cx="242.45" cy="414.05" rx="3.01" ry="3" fill="#1c1519"/><ellipse id="Ellipse_66" data-name="Ellipse 66" cx="242.45" cy="424.05" rx="3.01" ry="3" fill="#1c1519"/><ellipse id="Ellipse_76" data-name="Ellipse 76" cx="242.45" cy="434.05" rx="3.01" ry="3" fill="#1c1519"/><ellipse id="Ellipse_86" data-name="Ellipse 86" cx="242.45" cy="444.05" rx="3.01" ry="3" fill="#1c1519"/><ellipse id="Ellipse_96" data-name="Ellipse 96" cx="242.45" cy="454.05" rx="3.01" ry="3" fill="#1c1519"/><ellipse id="Ellipse_106" data-name="Ellipse 106" cx="242.45" cy="464.05" rx="3.01" ry="3" fill="#1c1519"/><ellipse id="Ellipse_26" data-name="Ellipse 26" cx="252.47" cy="383.05" rx="3.01" ry="3" fill="#1c1519"/><ellipse id="Ellipse_37" data-name="Ellipse 37" cx="252.47" cy="394.05" rx="3.01" ry="3" fill="#1c1519"/><ellipse id="Ellipse_47" data-name="Ellipse 47" cx="252.47" cy="404.05" rx="3.01" ry="3" fill="#1c1519"/><ellipse id="Ellipse_57" data-name="Ellipse 57" cx="252.47" cy="414.05" rx="3.01" ry="3" fill="#1c1519"/><ellipse id="Ellipse_67" data-name="Ellipse 67" cx="252.47" cy="424.05" rx="3.01" ry="3" fill="#1c1519"/><ellipse id="Ellipse_77" data-name="Ellipse 77" cx="252.47" cy="434.05" rx="3.01" ry="3" fill="#1c1519"/><ellipse id="Ellipse_87" data-name="Ellipse 87" cx="252.47" cy="444.05" rx="3.01" ry="3" fill="#1c1519"/><ellipse id="Ellipse_97" data-name="Ellipse 97" cx="252.47" cy="454.05" rx="3.01" ry="3" fill="#1c1519"/><ellipse id="Ellipse_107" data-name="Ellipse 107" cx="252.47" cy="464.05" rx="3.01" ry="3" fill="#1c1519"/><ellipse id="Ellipse_27" data-name="Ellipse 27" cx="262.48" cy="383.05" rx="3.01" ry="3" fill="#1c1519"/><ellipse id="Ellipse_42" data-name="Ellipse 42" cx="262.48" cy="394.05" rx="3.01" ry="3" fill="#1c1519"/><ellipse id="Ellipse_52" data-name="Ellipse 52" cx="262.48" cy="404.05" rx="3.01" ry="3" fill="#1c1519"/><ellipse id="Ellipse_62" data-name="Ellipse 62" cx="262.48" cy="414.05" rx="3.01" ry="3" fill="#1c1519"/><ellipse id="Ellipse_72" data-name="Ellipse 72" cx="262.48" cy="424.05" rx="3.01" ry="3" fill="#1c1519"/><ellipse id="Ellipse_82" data-name="Ellipse 82" cx="262.48" cy="434.05" rx="3.01" ry="3" fill="#1c1519"/><ellipse id="Ellipse_92" data-name="Ellipse 92" cx="262.48" cy="444.05" rx="3.01" ry="3" fill="#1c1519"/><ellipse id="Ellipse_102" data-name="Ellipse 102" cx="262.48" cy="454.05" rx="3.01" ry="3" fill="#1c1519"/><ellipse id="Ellipse_112" data-name="Ellipse 112" cx="262.48" cy="464.05" rx="3.01" ry="3" fill="#1c1519"/><ellipse id="Ellipse_28" data-name="Ellipse 28" cx="272.5" cy="383.05" rx="3.01" ry="3" fill="#1c1519"/><ellipse id="Ellipse_41" data-name="Ellipse 41" cx="272.5" cy="394.05" rx="3.01" ry="3" fill="#1c1519"/><ellipse id="Ellipse_51" data-name="Ellipse 51" cx="272.5" cy="404.05" rx="3.01" ry="3" fill="#1c1519"/><ellipse id="Ellipse_61" data-name="Ellipse 61" cx="272.5" cy="414.05" rx="3.01" ry="3" fill="#1c1519"/><ellipse id="Ellipse_71" data-name="Ellipse 71" cx="272.5" cy="424.05" rx="3.01" ry="3" fill="#1c1519"/><ellipse id="Ellipse_81" data-name="Ellipse 81" cx="272.5" cy="434.05" rx="3.01" ry="3" fill="#1c1519"/><ellipse id="Ellipse_91" data-name="Ellipse 91" cx="272.5" cy="444.05" rx="3.01" ry="3" fill="#1c1519"/><ellipse id="Ellipse_101" data-name="Ellipse 101" cx="272.5" cy="454.05" rx="3.01" ry="3" fill="#1c1519"/><ellipse id="Ellipse_111" data-name="Ellipse 111" cx="272.5" cy="464.05" rx="3.01" ry="3" fill="#1c1519"/><ellipse id="Ellipse_29" data-name="Ellipse 29" cx="282.52" cy="383.05" rx="3.01" ry="3" fill="#1c1519"/><ellipse id="Ellipse_40" data-name="Ellipse 40" cx="282.52" cy="394.05" rx="3.01" ry="3" fill="#1c1519"/><ellipse id="Ellipse_50" data-name="Ellipse 50" cx="282.52" cy="404.05" rx="3.01" ry="3" fill="#1c1519"/><ellipse id="Ellipse_60" data-name="Ellipse 60" cx="282.52" cy="414.05" rx="3.01" ry="3" fill="#1c1519"/><ellipse id="Ellipse_70" data-name="Ellipse 70" cx="282.52" cy="424.05" rx="3.01" ry="3" fill="#1c1519"/><ellipse id="Ellipse_80" data-name="Ellipse 80" cx="282.52" cy="434.05" rx="3.01" ry="3" fill="#1c1519"/><ellipse id="Ellipse_90" data-name="Ellipse 90" cx="282.52" cy="444.05" rx="3.01" ry="3" fill="#1c1519"/><ellipse id="Ellipse_100" data-name="Ellipse 100" cx="282.52" cy="454.05" rx="3.01" ry="3" fill="#1c1519"/><ellipse id="Ellipse_110" data-name="Ellipse 110" cx="282.52" cy="464.05" rx="3.01" ry="3" fill="#1c1519"/><ellipse id="Ellipse_30" data-name="Ellipse 30" cx="292.54" cy="383.05" rx="3.01" ry="3" fill="#1c1519"/><ellipse id="Ellipse_39" data-name="Ellipse 39" cx="292.54" cy="394.05" rx="3.01" ry="3" fill="#1c1519"/><ellipse id="Ellipse_49" data-name="Ellipse 49" cx="292.54" cy="404.05" rx="3.01" ry="3" fill="#1c1519"/><ellipse id="Ellipse_59" data-name="Ellipse 59" cx="292.54" cy="414.05" rx="3.01" ry="3" fill="#1c1519"/><ellipse id="Ellipse_69" data-name="Ellipse 69" cx="292.54" cy="424.05" rx="3.01" ry="3" fill="#1c1519"/><ellipse id="Ellipse_79" data-name="Ellipse 79" cx="292.54" cy="434.05" rx="3.01" ry="3" fill="#1c1519"/><ellipse id="Ellipse_89" data-name="Ellipse 89" cx="292.54" cy="444.05" rx="3.01" ry="3" fill="#1c1519"/><ellipse id="Ellipse_99" data-name="Ellipse 99" cx="292.54" cy="454.05" rx="3.01" ry="3" fill="#1c1519"/><ellipse id="Ellipse_109" data-name="Ellipse 109" cx="292.54" cy="464.05" rx="3.01" ry="3" fill="#1c1519"/><ellipse id="Ellipse_31" data-name="Ellipse 31" cx="302.56" cy="383.05" rx="3.01" ry="3" fill="#1c1519"/><ellipse id="Ellipse_38" data-name="Ellipse 38" cx="302.56" cy="394.05" rx="3.01" ry="3" fill="#1c1519"/><ellipse id="Ellipse_48" data-name="Ellipse 48" cx="302.56" cy="404.05" rx="3.01" ry="3" fill="#1c1519"/><ellipse id="Ellipse_58" data-name="Ellipse 58" cx="302.56" cy="414.05" rx="3.01" ry="3" fill="#1c1519"/><ellipse id="Ellipse_68" data-name="Ellipse 68" cx="302.56" cy="424.05" rx="3.01" ry="3" fill="#1c1519"/><ellipse id="Ellipse_78" data-name="Ellipse 78" cx="302.56" cy="434.05" rx="3.01" ry="3" fill="#1c1519"/><ellipse id="Ellipse_88" data-name="Ellipse 88" cx="302.56" cy="444.05" rx="3.01" ry="3" fill="#1c1519"/><ellipse id="Ellipse_98" data-name="Ellipse 98" cx="302.56" cy="454.05" rx="3.01" ry="3" fill="#1c1519"/><ellipse id="Ellipse_108" data-name="Ellipse 108" cx="302.56" cy="464.05" rx="3.01" ry="3" fill="#1c1519"/><ellipse id="Ellipse_32" data-name="Ellipse 32" cx="312.58" cy="383.05" rx="3.01" ry="3" fill="#1c1519"/><ellipse id="Ellipse_33" data-name="Ellipse 33" cx="312.58" cy="394.05" rx="3.01" ry="3" fill="#1c1519"/><ellipse id="Ellipse_43" data-name="Ellipse 43" cx="312.58" cy="404.05" rx="3.01" ry="3" fill="#1c1519"/><ellipse id="Ellipse_53" data-name="Ellipse 53" cx="312.58" cy="414.05" rx="3.01" ry="3" fill="#1c1519"/><ellipse id="Ellipse_63" data-name="Ellipse 63" cx="312.58" cy="424.05" rx="3.01" ry="3" fill="#1c1519"/><ellipse id="Ellipse_73" data-name="Ellipse 73" cx="312.58" cy="434.05" rx="3.01" ry="3" fill="#1c1519"/><ellipse id="Ellipse_83" data-name="Ellipse 83" cx="312.58" cy="444.05" rx="3.01" ry="3" fill="#1c1519"/><ellipse id="Ellipse_93" data-name="Ellipse 93" cx="312.58" cy="454.05" rx="3.01" ry="3" fill="#1c1519"/><ellipse id="Ellipse_103" data-name="Ellipse 103" cx="312.58" cy="464.05" rx="3.01" ry="3" fill="#1c1519"/></g><path id="Path_51" data-name="Path 51" d="M347.77,489.57" fill="none" stroke="#1c1519"/><g id="Group_10" data-name="Group 10"><g id="Ellipse_19-6" data-name="Ellipse 19-6"><ellipse cx="124.65" cy="403.05" rx="5.01" ry="5" fill="#675858"/><ellipse cx="124.65" cy="403.05" rx="4.51" ry="4.5" fill="none" stroke="#5d5555"/></g><line id="Line_3-3" data-name="Line 3-3" x1="123" y1="405.09" x2="126.54" y2="401.56" fill="none" stroke="#1c1519"/><line id="Line_4-3" data-name="Line 4-3" x1="123" y1="401.55" x2="126.54" y2="405.09" fill="none" stroke="#1c1519"/></g></g><g id="wheel_guide" data-name="wheel guide"><rect id="wheel_bg" data-name="wheel bg" x="218.4" y="152.05" width="112.21" height="152" fill="#1c1519"/><g id="wheel_rect" data-name="wheel rect"><rect x="268.49" y="281.05" width="12.02" height="12" fill="#2f232a"/><rect x="268.99" y="281.55" width="11.02" height="11" fill="none" stroke="#675858"/></g><ellipse id="Ellipse_21" data-name="Ellipse 21" cx="135.75" cy="228.05" rx="132.74" ry="133" fill="#1c1519"/><ellipse id="Ellipse_22" data-name="Ellipse 22" cx="414.26" cy="228.05" rx="132.74" ry="133" fill="#1c1519"/></g><g id="Screen"><rect id="Rectangle_28" data-name="Rectangle 28" x="167.09" y="517.01" width="205.57" height="82.15" fill="#f9eee5"/><path id="Path_42" data-name="Path 42" d="M367.44,586.26V521.33H174.06v64.93Z" fill="#f2e8e1"/><path id="Path_43" data-name="Path 43" d="M357.54,590.58V521.33H183.06v69.25Z" fill="#fff9f5"/><path id="Path_20" data-name="Path 20" d="M356.72,525.81H184.6l-8.8-4.65H367.44Z" fill="#9b8c8c"/><path id="Path_41" data-name="Path 41" d="M189.3,589.21h165l8.44,1.37H179Z" fill="#9b8c8c"/></g></g><g id="wheels"><g id="wheel_1" data-name="wheel 1"><circle id="Ellipse_3" data-name="Ellipse 3" cx="134" cy="228.05" r="134" fill="#675858"/><g id="Sub_wheel" data-name="Sub wheel"><g id="Ellipse_5-3" data-name="Ellipse 5-3"><circle cx="133.92" cy="227.63" r="49.33" fill="#675858"/><circle cx="133.92" cy="227.63" r="48.83" fill="none" stroke="#e6dad1"/></g><g id="Ellipse_7-3" data-name="Ellipse 7-3"><circle cx="132.66" cy="227.62" r="48.07" fill="#675858"/><circle cx="132.66" cy="227.62" r="47.57" fill="none" stroke="#40393d"/></g><path id="Path_1-3" data-name="Path 1-3" d="M159.67,219.87l-23.09,36.44-3.17-2.44,23.87-35.8Z" fill="#2f232a"/><path id="Path_2-3" data-name="Path 2-3" d="M136.61,256.28l-50-36.12.51-2.12,51.25,35.78Z" fill="#9b8c8c"/><path id="Path_6-3" data-name="Path 6-3" d="M158.86,220.58l-49.62-33.44a1.3,1.3,0,0,1,.85-.49c.45,0,.23-.11.23-.11l49.57,33.14Z" fill="#2f232a"/><path id="Path_7-3" data-name="Path 7-3" d="M156.33,220.58l-49.62-33.44a1.3,1.3,0,0,1,.85-.49c.45,0,.23-.11.23-.11l49.57,33.14Z" fill="#7e6969"/><path id="Path_8-3" data-name="Path 8-3" d="M156.32,219.54l-22.79,31.07s.39.46.59.46.82.65.82.65l21.83-31.36Z" fill="#7e6969"/></g><path id="Path_10-3" data-name="Path 10-3" d="M176.83,268l18.78,70.26a60.48,60.48,0,0,1-11.71,6.27,110.36,110.36,0,0,1-15.3,4.5l-38.87-63.43s-18.87.8-32.51-9-22-30.19-22-30.19L5.83,227.9l1-14.78,3.14-15L81,196.65s10.74-17,26.7-23.72,37.14-3.2,37.14-3.2l50-51.51,12.86,6.91,10.82,11.15L182,199.76s8.74,16.62,7.45,33.68S176.83,268,176.83,268Z" fill="none" stroke="#605252"/><g id="Ellipse_8" data-name="Ellipse 8"><circle cx="63.09" cy="254.95" r="8.31" fill="#675858"/><circle cx="63.09" cy="254.95" r="7.81" fill="none" stroke="#605252"/></g><path id="Path_11" data-name="Path 11" d="M178,185a41.39,41.39,0,0,0-7.78-8.56,36.19,36.19,0,0,0-9.87-5.21L177,154.65a12.38,12.38,0,0,1,3.27.94,38.91,38.91,0,0,1,3.59,1.66,13.92,13.92,0,0,1,3.49,3.4,16.76,16.76,0,0,1,2.25,4.69Z" fill="#2f232a"/><path id="Path_12" data-name="Path 12" d="M66.61,207.65a41.54,41.54,0,0,0-3.53,11,36.6,36.6,0,0,0,.43,11.15l-22.75-6.17a12.1,12.1,0,0,1-.82-3.3,37,37,0,0,1-.35-3.93,13.8,13.8,0,0,1,1.2-4.73,16.12,16.12,0,0,1,2.94-4.29Z" fill="#2f232a"/><path id="Path_13" data-name="Path 13" d="M147.29,287.85a41.08,41.08,0,0,0,11.32-2.46,36.4,36.4,0,0,0,9.44-5.94l6,22.78a11.86,11.86,0,0,1-2.44,2.36,36.32,36.32,0,0,1-3.24,2.28,13.92,13.92,0,0,1-4.69,1.32,16.11,16.11,0,0,1-5.18-.4Z" fill="#2f232a"/></g><g id="wheel_0" data-name="wheel 0"><circle id="Ellipse_3-2" data-name="Ellipse 3-2" cx="416" cy="228.05" r="134" fill="#675858"/><g id="Sub_wheel-2" data-name="Sub wheel-2"><g id="Ellipse_5-4" data-name="Ellipse 5-4"><circle cx="415.92" cy="227.63" r="49.33" fill="#675858"/><circle cx="415.92" cy="227.63" r="48.83" fill="none" stroke="#e6dad1"/></g><g id="Ellipse_7-4" data-name="Ellipse 7-4"><circle cx="414.66" cy="227.62" r="48.07" fill="#675858"/><circle cx="414.66" cy="227.62" r="47.57" fill="none" stroke="#40393d"/></g><path id="Path_1-4" data-name="Path 1-4" d="M441.67,219.87l-23.09,36.44-3.17-2.44,23.87-35.8Z" fill="#2f232a"/><path id="Path_2-4" data-name="Path 2-4" d="M418.61,256.28l-50-36.12.51-2.12,51.25,35.78Z" fill="#9b8c8c"/><path id="Path_6-4" data-name="Path 6-4" d="M440.86,220.58l-49.62-33.44a1.3,1.3,0,0,1,.85-.49c.45,0,.23-.11.23-.11l49.57,33.14Z" fill="#2f232a"/><path id="Path_7-4" data-name="Path 7-4" d="M438.33,220.58l-49.62-33.44a1.3,1.3,0,0,1,.85-.49c.45,0,.23-.11.23-.11l49.57,33.14Z" fill="#7e6969"/><path id="Path_8-4" data-name="Path 8-4" d="M438.32,219.54l-22.79,31.07s.39.46.59.46.82.65.82.65l21.83-31.36Z" fill="#7e6969"/></g><path id="Path_10-4" data-name="Path 10-4" d="M458.83,268l18.78,70.26a60.48,60.48,0,0,1-11.71,6.27,110.36,110.36,0,0,1-15.3,4.5l-38.87-63.43s-18.87.8-32.51-9-22.05-30.19-22.05-30.19L287.83,227.9l1-14.78,3.14-15,71-1.46s10.74-17,26.7-23.72,37.14-3.2,37.14-3.2l50.05-51.51,12.86,6.91,10.82,11.15L464,199.76s8.74,16.62,7.45,33.68S458.83,268,458.83,268Z" fill="none" stroke="#605252"/><g id="Path_44" data-name="Path 44"><path d="M345.09,262.77A7.82,7.82,0,1,1,352.9,255,7.83,7.83,0,0,1,345.09,262.77Z" fill="#675858"/><path d="M345.09,262.27a7.32,7.32,0,1,0-7.32-7.32,7.33,7.33,0,0,0,7.32,7.32m0,1A8.32,8.32,0,1,1,353.4,255,8.33,8.33,0,0,1,345.09,263.27Z" fill="#605252"/></g><path id="Path_11-2" data-name="Path 11-2" d="M460,185a41.39,41.39,0,0,0-7.78-8.56,36.19,36.19,0,0,0-9.87-5.21L459,154.65a12.38,12.38,0,0,1,3.27.94,38.91,38.91,0,0,1,3.59,1.66,13.92,13.92,0,0,1,3.49,3.4,16.76,16.76,0,0,1,2.25,4.69Z" fill="#2f232a"/><path id="Path_12-2" data-name="Path 12-2" d="M348.61,207.65a41.54,41.54,0,0,0-3.53,11,36.6,36.6,0,0,0,.43,11.15l-22.75-6.17a12.1,12.1,0,0,1-.82-3.3,37,37,0,0,1-.35-3.93,13.8,13.8,0,0,1,1.2-4.73,16.12,16.12,0,0,1,2.94-4.29Z" fill="#2f232a"/><path id="Path_13-2" data-name="Path 13-2" d="M429.29,287.85a41.08,41.08,0,0,0,11.32-2.46,36.4,36.4,0,0,0,9.44-5.94l6,22.78a11.86,11.86,0,0,1-2.44,2.36,36.32,36.32,0,0,1-3.24,2.28,13.92,13.92,0,0,1-4.69,1.32,16.11,16.11,0,0,1-5.18-.4Z" fill="#2f232a"/></g></g><g id="upper"><g id="bridge"><g id="ridge"><path d="M467.82,130.59l-398.28-.4v-1.87l-.19-.15-.67-.53V76.57l400.62-.65,0,51.33-1.27,1-.19.15v2.16Z" fill="#e6dad1"/><path d="M467.32,130.09v-1.9l.37-.3,1.09-.88,0-50.59-399.62.64V127.4l.48.37.38.3v1.62l397.28.4m1,1L69,130.69v-2.13l-.86-.68V76.07l401.62-.65,0,52.07-1.46,1.18Z" fill="#ffeddf"/></g><g id="lower_ridge-2" data-name="lower ridge-2"><path d="M475.64,116.8,64.3,116.73v-.32l-.43-.06-.45-.06v-8.77l413.74.33,0,8.37-1.07.15-.43.06Z" fill="#e6dad1"/><path d="M475.14,116.3V116l.86-.12.65-.09v-7.44L63.92,108v7.83h0l.86.12v.25l410.34.07m1,1L63.8,117.23v-.38l-.88-.12V107l414.75.33,0,9.31-1.5.21Z" fill="#ffeddf"/></g><rect id="shadow_rect-2" data-name="shadow rect-2" x="67.8" y="58.13" width="403.95" height="17.29" fill="#e6dad1" opacity="0.56" style="isolation:isolate"/></g><g id="Rectangle_11" data-name="Rectangle 11"><rect x="6.39" y="58.65" width="534.88" height="10.79" fill="#9b8c8c"/><rect x="6.89" y="59.15" width="533.88" height="9.79" fill="none" stroke="#707070"/></g><g id="Rectangle_30" data-name="Rectangle 30"><rect x="6.39" y="10.61" width="18.48" height="58.83" fill="#675858"/><rect x="6.89" y="11.11" width="17.48" height="57.83" fill="none" stroke="#707070"/></g><g id="Rectangle_31" data-name="Rectangle 31"><rect x="529.08" y="10.61" width="13.67" height="58.83" fill="#675858"/><rect x="529.58" y="11.11" width="12.67" height="57.83" fill="none" stroke="#707070"/></g><g id="Path_22-2" data-name="Path 22-2"><path d="M534,64.66,15.29,63.56l3.67-12L531.1,52Z" fill="#9b8c8c"/><path d="M533.32,64.16,530.7,52.54,19.33,52.09,16,63.06l517.35,1.1m1.26,1-520-1.12,4-13,512.91.45Z" fill="#707070"/></g><g id="Path_24-2" data-name="Path 24-2"><path d="M534,53.87,15.29,52.77,19,40.8l512.14.45Z" fill="#9b8c8c"/><path d="M533.32,53.37,530.7,41.75,19.33,41.3,16,52.27l517.35,1.1m1.26,1-520-1.12,4-13,512.91.45Z" fill="#707070"/></g><g id="Path_26-2" data-name="Path 26-2"><path d="M534,43.07,15.29,42,19,30l512.14.45Z" fill="#9b8c8c"/><path d="M533.32,42.57,530.7,31,19.33,30.5,16,41.47l517.35,1.1m1.26,1-520-1.12,4-13L531.5,30Z" fill="#707070"/></g><g id="Path_28-2" data-name="Path 28-2"><path d="M533.41,32.28,16.13,31.18l3.66-12,510.78.45Z" fill="#9b8c8c"/><path d="M532.79,31.78l-2.62-11.62-510-.45-3.35,11,516,1.1m1.25,1L15.46,31.67l4-13L531,19.16Z" fill="#707070"/></g><g id="Rectangle_12" data-name="Rectangle 12"><rect x="0.64" y="0.36" width="549.48" height="20.51" fill="#9b8c8c"/><rect x="1.14" y="0.86" width="548.48" height="19.51" fill="none" stroke="#707070"/></g><path id="Topline" d="M0,.9l549.91.36" fill="none" stroke="#ffeadb" stroke-width="1.8"/><g id="Rectangle_33" data-name="Rectangle 33"><rect x="5.64" y="69.05" width="537" height="16" fill="#9b8c8c"/><rect x="6.14" y="69.55" width="536" height="15" fill="none" stroke="#707070"/></g></g></g></svg>