<svg xmlns="http://www.w3.org/2000/svg" xmlns:xlink="http://www.w3.org/1999/xlink" viewBox="0 0 550.115 131.088"><style><![CDATA[.Q{fill:#9b8c8c}.R{flood-opacity:.16}.S{fill:none}.T{stroke:none}.U{fill:#707070}.V{fill:#e6dad1}.W{stroke:#707070}]]></style><defs><filter id="A" x="53.912" y="101.022" width="432.745" height="28.281" filterUnits="userSpaceOnUse"><feOffset dy="3"/><feGaussianBlur stdDeviation="3" result="A"/><feFlood class="R"/><feComposite operator="in" in2="A"/><feComposite in="SourceGraphic"/></filter><filter id="B" x="39.297" y="32.63" width="460.951" height="74.292" filterUnits="userSpaceOnUse"><feOffset dy="3"/><feGaussianBlur stdDeviation="9.5" result="A"/><feFlood class="R"/><feComposite operator="in" in2="A"/><feComposite in="SourceGraphic"/></filter><filter id="C" x="5.615" y="45.092" width="537.959" height="32.075" filterUnits="userSpaceOnUse"><feOffset dy="3"/><feGaussianBlur stdDeviation="3" result="A"/><feFlood class="R"/><feComposite operator="in" in2="A"/><feComposite in="SourceGraphic"/></filter><filter id="D" x="5.615" y="34.298" width="537.959" height="32.075" filterUnits="userSpaceOnUse"><feOffset dy="3"/><feGaussianBlur stdDeviation="3" result="A"/><feFlood class="R"/><feComposite operator="in" in2="A"/><feComposite in="SourceGraphic"/></filter><filter id="E" x="5.615" y="23.504" width="537.959" height="32.075" filterUnits="userSpaceOnUse"><feOffset dy="3"/><feGaussianBlur stdDeviation="3" result="A"/><feFlood class="R"/><feComposite operator="in" in2="A"/><feComposite in="SourceGraphic"/></filter><filter id="F" x="6.457" y="12.71" width="536.583" height="32.075" filterUnits="userSpaceOnUse"><feOffset dy="3"/><feGaussianBlur stdDeviation="3" result="A"/><feFlood class="R"/><feComposite operator="in" in2="A"/><feComposite in="SourceGraphic"/></filter><path id="G" d="M513.903 13.574L-4.754 12.466-1.1.5l512.14.447 2.852 12.627z"/><path id="H" d="M513.277 13.073L510.65 1.447-.72 1-4.08 11.968l517.356 1.105m1.252 1.003l-519.96-1.11L-1.46 0l512.9.447 3.08 13.628z"/></defs><g transform="translate(-411.364 -290.64)"><g transform="translate(474.276 348.769)" class="V"><path d="M404.908 72.46l-398.285-.4v-1.87l-.852-.68v-51.07l400.618-.643-.02 51.327-1.46 1.183v2.156z"/><path d="M404.408 71.958v-1.893l1.46-1.183.02-50.588-399.617.642v50.33l.852.68v1.612l397.285.4m1 1L6.123 72.557v-2.13l-.852-.68v-51.8l401.618-.645-.02 52.066-1.46 1.183v2.418z" fill="#ffeddf"/><g transform="translate(-62.91 -58.13)" filter="url(#A)"><g transform="translate(63.52 107.29)"><path d="M412.113 9.51L.345 9.064l-.448-.062V.23L413.64.558l-.02 8.374-1.508.212v.367z"/><path d="M411.613 9.01V8.7l.86-.12.648-.09.017-7.44L.397.73v7.835l.88.122v.252l410.337.07m1 1L.276 9.94v-.38l-.88-.122V-.27l414.746.33-.022 9.31-1.507.212v.432z" fill="#ffeddf"/></g></g><g transform="translate(-62.91 -58.13)" filter="url(#B)"><path transform="translate(67.8 58.13)" d="M0 0h403.95v17.292H0z" opacity=".56"/></g></g><g class="W"><g class="Q"><path d="M417.75 349.288h534.877v10.794H417.75z" class="T"/><path d="M418.25 349.788h533.877v9.794H418.25z" class="S"/></g><g fill="#675858"><path d="M417.75 301.254h18.48v58.827h-18.48z" class="T"/><path d="M418.25 301.754h17.48v57.827h-17.48z" class="S"/><path d="M940.444 301.254h13.67v58.827h-13.67z" class="T"/><path d="M940.944 301.754h12.67v57.827h-12.67z" class="S"/></g></g><g transform="translate(411.36 290.64)" filter="url(#C)" class="Q"><g transform="translate(20.04 51.09)"><use xlink:href="#G"/><use xlink:href="#H" class="U"/></g></g><g transform="translate(411.36 290.64)" filter="url(#D)" class="Q"><g transform="translate(20.04 40.3)"><use xlink:href="#G"/><use xlink:href="#H" class="U"/></g></g><g transform="translate(411.36 290.64)" filter="url(#E)" class="Q"><g transform="translate(20.04 29.5)"><use xlink:href="#G"/><use xlink:href="#H" class="U"/></g></g><g transform="translate(411.36 290.64)" filter="url(#F)" class="Q"><g transform="translate(20.89 18.71)"><path d="M512.527 13.574L-4.755 12.466-1.1.5l510.782.447 2.845 12.627z"/><path d="M511.902 13.073l-2.62-11.626L-.73 1-4.08 11.968l515.982 1.105m1.25 1.003L-5.43 12.965-1.47 0l511.552.447 3.07 13.628z" class="U"/></g></g><g class="Q W"><path d="M412 291h549.48v20.51H412z" class="T"/><path d="M412.5 291.5h548.48v19.51H412.5z" class="S"/></g><path d="M411.365 291.54l549.9.36" stroke="#ffeadb" stroke-width="1.8" class="S"/><g class="Q W"><path d="M417.002 359.695h537v16h-537z" class="T"/><path d="M417.502 360.195h536v15h-536z" class="S"/></g></g></svg>