<svg id="Layer_1" data-name="Layer 1" xmlns="http://www.w3.org/2000/svg" viewBox="0 0 268 268"><title>Wheel</title><circle cx="134" cy="134" r="134" fill="#675858"/><circle cx="133.92" cy="133.58" r="49.33" fill="#675858"/><circle cx="133.92" cy="133.58" r="48.83" fill="none" stroke="#e6dad1"/><circle cx="132.66" cy="133.58" r="48.07" fill="#675858"/><circle cx="132.66" cy="133.58" r="47.57" fill="none" stroke="#40393d"/><path d="M159.67,125.82l-23.1,36.44-3.17-2.44L157.28,124Z" fill="#2f232a"/><path d="M136.6,162.24l-50-36.12.5-2.12,51.25,35.78Z" fill="#9b8c8c"/><path d="M158.86,126.53,109.24,93.08a1.35,1.35,0,0,1,.85-.49c.45,0,.23-.1.23-.1l49.57,33.15Z" fill="#2f232a"/><path d="M156.33,126.53,106.7,93.08a1.35,1.35,0,0,1,.85-.49c.45,0,.23-.1.23-.1l49.57,33.15Z" fill="#7e6969"/><path d="M156.32,125.48l-22.8,31.08s.4.46.6.46.82.65.82.65l21.83-31.36Z" fill="#7e6969"/><path d="M176.83,174l18.78,70.26a60.53,60.53,0,0,1-11.71,6.28,110.36,110.36,0,0,1-15.3,4.5l-38.86-63.43s-18.87.8-32.52-9-22-30.2-22-30.2L5.83,133.84l1-14.78,3.14-15,71-1.46s10.75-17,26.7-23.72,37.14-3.2,37.14-3.2l50-51.5,12.87,6.92,10.9,11.14L182,105.7s8.74,16.62,7.45,33.7S176.83,174,176.83,174Z" fill="none" stroke="#605252"/><path d="M63.1,168.7a7.81,7.81,0,1,1,7.81-7.81h0A7.83,7.83,0,0,1,63.1,168.7Z" fill="#675858"/><path d="M63.1,168.2a7.31,7.31,0,1,0-7.31-7.31h0a7.33,7.33,0,0,0,7.31,7.31m0,1a8.31,8.31,0,1,1,8.31-8.31h0A8.31,8.31,0,0,1,63.1,169.2Z" fill="#605252"/><path d="M178,91a41.44,41.44,0,0,0-7.78-8.57,36.47,36.47,0,0,0-9.87-5.21L177,60.6a12,12,0,0,1,3.27.94,36.28,36.28,0,0,1,3.58,1.66,14,14,0,0,1,3.5,3.4,16.34,16.34,0,0,1,2.24,4.69ZM66.6,113.6a41,41,0,0,0-3.53,11,36.58,36.58,0,0,0,.42,11.15l-22.74-6.17a12.19,12.19,0,0,1-.82-3.3c-.18-1.3-.3-2.61-.35-3.93a14.09,14.09,0,0,1,1.2-4.73,16.43,16.43,0,0,1,2.94-4.29Zm80.7,80.2a41,41,0,0,0,11.31-2.46,36.73,36.73,0,0,0,9.45-5.94l6,22.78a12.18,12.18,0,0,1-2.45,2.36,38.23,38.23,0,0,1-3.23,2.27,14.17,14.17,0,0,1-4.69,1.33,16.4,16.4,0,0,1-5.18-.4Z" fill="#2f232a"/></svg>