<svg xmlns="http://www.w3.org/2000/svg" xmlns:xlink="http://www.w3.org/1999/xlink" viewBox="0 0 271.692 268.002"><style><![CDATA[.T{flood-opacity:.16}.U{fill:#675858}.V{fill:#2f232a}]]></style><defs><filter id="A" x="71.279" y="83.243" width="146.663" height="146.663" filterUnits="userSpaceOnUse"><feOffset dx="7" dy="23"/><feGaussianBlur stdDeviation="8" result="A"/><feFlood class="T"/><feComposite operator="in" in2="A"/><feComposite in="SourceGraphic"/></filter><filter id="B" x="71.279" y="84.507" width="144.135" height="144.135" filterUnits="userSpaceOnUse"><feOffset dx="7" dy="23"/><feGaussianBlur stdDeviation="8" result="A"/><feFlood class="T"/><feComposite operator="in" in2="A"/><feComposite in="SourceGraphic"/></filter><filter id="C" x="128.098" y="122.016" width="44.259" height="56.242" filterUnits="userSpaceOnUse"><feOffset dy="7"/><feGaussianBlur stdDeviation="3" result="A"/><feFlood class="T"/><feComposite operator="in" in2="A"/><feComposite in="SourceGraphic"/></filter><filter id="D" x="81.332" y="121.988" width="69.758" height="56.245" filterUnits="userSpaceOnUse"><feOffset dy="7"/><feGaussianBlur stdDeviation="3" result="A"/><feFlood class="T"/><feComposite operator="in" in2="A"/><feComposite in="SourceGraphic"/></filter><filter id="E" x="103.932" y="90.485" width="68.65" height="52.046" filterUnits="userSpaceOnUse"><feOffset dy="7"/><feGaussianBlur stdDeviation="3" result="A"/><feFlood class="T"/><feComposite operator="in" in2="A"/><feComposite in="SourceGraphic"/></filter><filter id="F" x="101.403" y="90.485" width="68.65" height="52.046" filterUnits="userSpaceOnUse"><feOffset dy="7"/><feGaussianBlur stdDeviation="3" result="A"/><feFlood class="T"/><feComposite operator="in" in2="A"/><feComposite in="SourceGraphic"/></filter><filter id="G" x="128.222" y="123.483" width="41.236" height="50.187" filterUnits="userSpaceOnUse"><feOffset dy="7"/><feGaussianBlur stdDeviation="3" result="A"/><feFlood class="T"/><feComposite operator="in" in2="A"/><feComposite in="SourceGraphic"/></filter><filter id="H" x="0" y="17.546" width="231.913" height="250.029" filterUnits="userSpaceOnUse"><feOffset dy="3"/><feGaussianBlur stdDeviation="3" result="A"/><feFlood class="T"/><feComposite operator="in" in2="A"/><feComposite in="SourceGraphic"/></filter><path id="I" d="M34.046,1.027.6,50.65A1.343,1.343,0,0,1,.114,49.8c0-.45-.114-.229-.114-.229L33.148,0Z"/></defs><g transform="translate(-666.31 -355)"><circle cx="804.001" cy="489.001" r="134.001" class="U"/><g transform="translate(754.589 439.243)"><g transform="translate(-88.28 -84.24)" filter="url(#A)" class="U"><g transform="translate(88.28 84.24)" stroke="#e6dad1"><circle cx="49.332" cy="49.332" r="49.332" stroke="none"/><circle cx="49.332" cy="49.332" r="48.832" fill="none"/></g></g><g transform="translate(-88.28 -84.24)" filter="url(#B)" class="U"><g transform="translate(88.28 85.51)" stroke="#40393d"><circle cx="48.067" cy="48.067" r="48.067" stroke="none"/><circle cx="48.067" cy="48.067" r="47.567" fill="none"/></g></g><g transform="translate(-88.28 -84.24)" filter="url(#C)" class="V"><path d="M825.13 471.58l-23.088 36.44-3.17-2.44 23.874-35.8z" transform="translate(-661.77 -345.76)"/></g><g transform="translate(-88.28 -84.24)" filter="url(#D)"><path d="M38.245,1.785,2.125,51.758,0,51.248,35.78,0Z" transform="matrix(0 1 -1 0 142.09 123.99)" fill="#9b8c8c"/></g><g transform="translate(-88.28 -84.24)" filter="url(#E)" class="V"><use xlink:href="#I" transform="matrix(0 1 -1 0 163.58 92.48)"/></g><g transform="translate(-88.28 -84.24)" filter="url(#F)"><use xlink:href="#I" transform="matrix(0 1 -1 0 161.05 92.48)" fill="#7e6969"/></g><g transform="translate(-88.28 -84.24)" filter="url(#G)"><path d="M0 .45l31.075 22.786s.458-.39.458-.588.654-.818.654-.818L.825 0z" transform="matrix(0 1 -1 0 160.46 125.48)" fill="#7e6969"/></g></g><g transform="translate(666.31 355)" filter="url(#H)"><path d="M1572.955 527.518l18.78 70.257a60.39 60.39 0 0 1-11.707 6.276 110.54 110.54 0 0 1-15.3 4.5l-38.865-63.43s-18.874.8-32.515-8.995-22.05-30.19-22.05-30.19l-69.335-18.554 1.006-14.78 3.144-15.005 71.044-1.465s10.747-16.99 26.707-23.718 37.135-3.2 37.135-3.2l50.048-51.513 12.866 6.916 10.816 11.15-36.62 63.475s8.738 16.62 7.448 33.687-12.602 34.588-12.602 34.588z" transform="translate(-1392.44 -353.54)" fill="none" stroke="#605252"/></g><g class="U"><path d="M733.088 523.713c-4.31 0-7.814-3.505-7.814-7.814s3.505-7.814 7.814-7.814 7.814 3.505 7.814 7.814-3.505 7.814-7.814 7.814z"/><path d="M733.088 523.213c4.033 0 7.314-3.28 7.314-7.314s-3.28-7.314-7.314-7.314-7.314 3.28-7.314 7.314 3.28 7.314 7.314 7.314m0 1c-4.592 0-8.314-3.722-8.314-8.314s3.722-8.314 8.314-8.314 8.314 3.722 8.314 8.314-3.722 8.314-8.314 8.314z" fill="#605252"/></g><path d="M847.954 446a41.25 41.25 0 0 0-7.785-8.567 36.6 36.6 0 0 0-9.868-5.211l16.713-16.6a12.07 12.07 0 0 1 3.27.936 37.78 37.78 0 0 1 3.583 1.664c1.356.92 2.54 2.07 3.496 3.4a16.4 16.4 0 0 1 2.242 4.69zM736.6 468.6a41.25 41.25 0 0 0-3.527 11.026 36.6 36.6 0 0 0 .421 11.151l-22.742-6.168a12.07 12.07 0 0 1-.824-3.3c-.185-1.305-.302-2.618-.35-3.935a13.96 13.96 0 0 1 1.196-4.728 16.4 16.4 0 0 1 2.941-4.287zm80.684 80.197a41.25 41.25 0 0 0 11.312-2.459 36.6 36.6 0 0 0 9.447-5.94l6.03 22.78a12.07 12.07 0 0 1-2.446 2.364c-1.037.813-2.116 1.57-3.233 2.27-1.474.715-3.063 1.164-4.692 1.328a16.4 16.4 0 0 1-5.183-.403z" class="V"/></g></svg>