<svg xmlns="http://www.w3.org/2000/svg" xmlns:xlink="http://www.w3.org/1999/xlink" viewBox="0 0 544 798"><defs><style>.a{fill:#b98656;}.b,.e{fill:#e6dad1;}.b{stroke:#c6b2a2;}.ac,.b{stroke-width:1.7px;}.ah,.c,.z{fill:#2f232a;}.d,.u{fill:#675858;}.f{fill:#cd9b48;}.g{fill:#fff;}.ak,.h{fill:#fff9f5;}.h{font-size:14px;font-family:ArchitectsDaughter-Regular, Architects Daughter;opacity:0.9;}.an,.i{fill:#ac884d;}.j{fill:#f9e2bb;}.ab,.k{fill:#1c1519;}.k{font-size:8px;font-family:IBMPlexSans, IBM Plex Sans;opacity:0.58;}.l,.m,.s{fill:#241a20;}.m{stroke:#362d2e;}.m,.n,.s{stroke-width:2.4px;}.aa,.am,.n,.t,.v,.x,.y{fill:none;}.n,.s{stroke:#493c3e;}.o,.p,.r,.w{fill:#20161d;}.o{stroke:#726464;}.o,.p,.q{stroke-width:1.8px;}.p,.q{stroke:#9b8c8c;}.q{fill:#271d23;}.ag,.t,.y{stroke:#2f232a;}.t{stroke-width:0.6px;}.u{stroke:#5d5555;}.v{stroke:#1c1519;}.x{stroke:#31222b;opacity:0.68;}.y{opacity:0.79;}.z{opacity:0.64;}.aa{stroke:#707070;}.ac{fill:#23191f;}.ac,.ah{stroke:#675858;}.ad,.ap{fill:#9b8c8c;}.ae{fill:#7d7272;}.af{fill:#7b7171;}.ag{fill:#22181e;stroke-width:2.1px;}.ai{fill:#f9eee5;}.aj{fill:#f2e8e1;}.al,.an,.ao,.ap{stroke:none;}.ao{fill:#726464;}.aq{filter:url(#ae);}.ar{filter:url(#ac);}.as{filter:url(#aa);}.at{filter:url(#y);}.au{filter:url(#w);}.av{filter:url(#u);}.aw{filter:url(#s);}.ax{filter:url(#q);}.ay{filter:url(#o);}.az{filter:url(#m);}.ba{filter:url(#k);}.bb{filter:url(#i);}.bc{filter:url(#g);}.bd{filter:url(#e);}.be{filter:url(#c);}.bf{filter:url(#a);}</style><filter id="a" x="205.4" y="245" width="125.197" height="79" filterUnits="userSpaceOnUse"><feOffset dy="20" input="SourceAlpha"/><feGaussianBlur stdDeviation="3" result="b"/><feFlood flood-opacity="0.161"/><feComposite operator="in" in2="b"/><feComposite in="SourceGraphic"/></filter><filter id="c" x="95.197" y="466" width="51.061" height="51" filterUnits="userSpaceOnUse"><feOffset dy="3" input="SourceAlpha"/><feGaussianBlur stdDeviation="3" result="d"/><feFlood flood-opacity="0.161"/><feComposite operator="in" in2="d"/><feComposite in="SourceGraphic"/></filter><filter id="e" x="94.195" y="465" width="51.061" height="51" filterUnits="userSpaceOnUse"><feOffset dy="3" input="SourceAlpha"/><feGaussianBlur stdDeviation="3" result="f"/><feFlood flood-opacity="0.161"/><feComposite operator="in" in2="f"/><feComposite in="SourceGraphic"/></filter><filter id="g" x="92.62" y="417.415" width="54.322" height="54.269" filterUnits="userSpaceOnUse"><feOffset dy="3" input="SourceAlpha"/><feGaussianBlur stdDeviation="3" result="h"/><feFlood flood-opacity="0.161"/><feComposite operator="in" in2="h"/><feComposite in="SourceGraphic"/></filter><filter id="i" x="93.511" y="416.316" width="54.322" height="54.269" filterUnits="userSpaceOnUse"><feOffset dy="3" input="SourceAlpha"/><feGaussianBlur stdDeviation="3" result="j"/><feFlood flood-opacity="0.161"/><feComposite operator="in" in2="j"/><feComposite in="SourceGraphic"/></filter><filter id="k" x="395.75" y="285" width="59.076" height="59" filterUnits="userSpaceOnUse"><feOffset dy="3" input="SourceAlpha"/><feGaussianBlur stdDeviation="3" result="l"/><feFlood flood-opacity="0.161"/><feComposite operator="in" in2="l"/><feComposite in="SourceGraphic"/></filter><filter id="m" x="136.789" y="324.305" width="52.12" height="52.071" filterUnits="userSpaceOnUse"><feOffset dy="3" input="SourceAlpha"/><feGaussianBlur stdDeviation="3" result="n"/><feFlood flood-opacity="0.161"/><feComposite operator="in" in2="n"/><feComposite in="SourceGraphic"/></filter><filter id="o" x="402.634" y="365" width="28.018" height="28" filterUnits="userSpaceOnUse"><feOffset dy="3" input="SourceAlpha"/><feGaussianBlur stdDeviation="3" result="p"/><feFlood flood-opacity="0.161"/><feComposite operator="in" in2="p"/><feComposite in="SourceGraphic"/></filter><filter id="q" x="169.633" y="449" width="28.018" height="28" filterUnits="userSpaceOnUse"><feOffset dy="3" input="SourceAlpha"/><feGaussianBlur stdDeviation="3" result="r"/><feFlood flood-opacity="0.161"/><feComposite operator="in" in2="r"/><feComposite in="SourceGraphic"/></filter><filter id="s" x="387.841" y="401.49" width="73.642" height="73.6" filterUnits="userSpaceOnUse"><feOffset dy="3" input="SourceAlpha"/><feGaussianBlur stdDeviation="3" result="t"/><feFlood flood-opacity="0.161"/><feComposite operator="in" in2="t"/><feComposite in="SourceGraphic"/></filter><filter id="u" x="389.528" y="402.348" width="73.642" height="73.6" filterUnits="userSpaceOnUse"><feOffset dy="3" input="SourceAlpha"/><feGaussianBlur stdDeviation="3" result="v"/><feFlood flood-opacity="0.161"/><feComposite operator="in" in2="v"/><feComposite in="SourceGraphic"/></filter><filter id="w" x="136.789" y="324.305" width="52.12" height="52.071" filterUnits="userSpaceOnUse"><feOffset dy="3" input="SourceAlpha"/><feGaussianBlur stdDeviation="3" result="x"/><feFlood flood-opacity="0.161"/><feComposite operator="in" in2="x"/><feComposite in="SourceGraphic"/></filter><filter id="y" x="354.188" y="324.305" width="52.12" height="52.071" filterUnits="userSpaceOnUse"><feOffset dy="3" input="SourceAlpha"/><feGaussianBlur stdDeviation="3" result="z"/><feFlood flood-opacity="0.161"/><feComposite operator="in" in2="z"/><feComposite in="SourceGraphic"/></filter><filter id="aa" x="322.615" y="387" width="47.053" height="47" filterUnits="userSpaceOnUse"><feOffset dy="3" input="SourceAlpha"/><feGaussianBlur stdDeviation="3" result="ab"/><feFlood flood-opacity="0.161"/><feComposite operator="in" in2="ab"/><feComposite in="SourceGraphic"/></filter><filter id="ac" x="161.319" y="387" width="47.053" height="47" filterUnits="userSpaceOnUse"><feOffset dy="3" input="SourceAlpha"/><feGaussianBlur stdDeviation="3" result="ad"/><feFlood flood-opacity="0.161"/><feComposite operator="in" in2="ad"/><feComposite in="SourceGraphic"/></filter><filter id="ae" x="107.633" y="365" width="28.018" height="28" filterUnits="userSpaceOnUse"><feOffset dy="3" input="SourceAlpha"/><feGaussianBlur stdDeviation="3" result="af"/><feFlood flood-opacity="0.161"/><feComposite operator="in" in2="af"/><feComposite in="SourceGraphic"/></filter></defs><g transform="translate(-515 -311)"><g transform="translate(519.013 311)"><rect class="a" width="534.983" height="759" transform="translate(0 10)"/><g class="b" transform="translate(32.033)"><rect class="al" width="462.913" height="785"/><rect class="am" x="0.85" y="0.85" width="461.213" height="783.3"/></g><rect class="c" width="419.772" height="751" transform="translate(53.098 34)"/></g><g transform="translate(676.99 749)"><path class="d" d="M0,0H210.695V213H0Z" transform="translate(0 40)"/><rect class="e" width="210.695" height="13" transform="translate(0 39)"/><rect class="c" width="210.559" height="34" transform="translate(0.136 5)"/><g transform="translate(103.615)"><path class="f" d="M0,0H74L70.507,29.132l-4.625,4.592-6.938,3.031L7.6,37.392,6.257,36.069,4.037,34.4Z"/><g class="g" transform="matrix(0.966, -0.259, 0.259, 0.966, 4.057, 34.406)"><path class="al" d="M0,0A11.072,11.072,0,0,0,1.835.336a14.107,14.107,0,0,0,2.007,0L3.179.967l-1.845.3Z"/><path class="an" d="M 1.334264755249023 1.263381242752075 L 4.745025762531441e-06 1.277027081414417e-06 C 4.745025762531441e-06 1.277027081414417e-06 0.8744047284126282 0.2511112689971924 1.834894776344299 0.3363412916660309 C 2.166942596435547 0.3658055663108826 2.509317636489868 0.375446230173111 2.815142869949341 0.375446230173111 C 3.393964529037476 0.375446230173111 3.841964721679688 0.3409212827682495 3.841964721679688 0.3409212827682495 L 3.179304838180542 0.9672113060951233 L 1.334264755249023 1.263381242752075 Z"/></g><text class="h" transform="translate(6.167 6)"><tspan x="8.556" y="14">MOOD </tspan><tspan x="5.514" y="28">DRONE</tspan></text><path class="i" d="M0,.046A9.214,9.214,0,0,0,4.4,1.7C6.448,1.686,9.619-.072,9.619-.072l.17.522L9.324,1.8.166,3.265Z" transform="translate(61.374 25.559) rotate(18)"/><path class="j" d="M739.313,869.795s1.721-13.1,2.518-10.929,1.282,2.634,3.838,3.3a11.481,11.481,0,0,0,5.245-.084,16.856,16.856,0,0,1-4.719,5.38,17.117,17.117,0,0,1-6.882,2.336" transform="translate(-680.408 -833)"/><path class="j" d="M7.384,37.392c0-.238.468-3.854.468-3.854a4.559,4.559,0,0,1-1.915,1.045,4.308,4.308,0,0,1-2.011-.192Z" transform="translate(0.102)"/></g><text class="k" transform="translate(64.75 40)"><tspan x="55.868" y="8">MK I sleeping toolkit</tspan></text></g><g transform="translate(572.11 528)"><rect class="l" width="107.197" height="48" transform="translate(160.295 45)"/><g class="m" transform="translate(159.293 30)"><rect class="al" width="103.19" height="48"/><rect class="am" x="1.2" y="1.2" width="100.79" height="45.6"/></g><g class="bf" transform="matrix(1, 0, 0, 1, -57.11, -217)"><g class="n" transform="translate(214.4 245)"><rect class="al" width="107.197" height="50"/><rect class="am" x="1.2" y="1.2" width="104.797" height="47.6"/></g></g><g transform="translate(46.085 254)"><g class="be" transform="matrix(1, 0, 0, 1, -103.2, -471)"><g class="o" transform="translate(104.2 472)"><ellipse class="al" cx="16.53" cy="16.5" rx="16.53" ry="16.5"/><ellipse class="am" cx="16.53" cy="16.5" rx="15.63" ry="15.6"/></g></g><g class="bd" transform="matrix(1, 0, 0, 1, -103.2, -471)"><g class="p" transform="translate(103.2 471)"><ellipse class="al" cx="16.53" cy="16.5" rx="16.53" ry="16.5"/><ellipse class="am" cx="16.53" cy="16.5" rx="15.63" ry="15.6"/></g></g></g><g transform="matrix(0.105, 0.995, -0.995, 0.105, 78.274, 205.316)"><g class="bc" transform="matrix(0.1, -0.99, 0.99, 0.1, -434.15, 90.5)"><g class="o" transform="matrix(0.1, 0.99, -0.99, 0.1, 134.49, 423.42)"><ellipse class="al" cx="16.497" cy="16.527" rx="16.497" ry="16.527"/><ellipse class="am" cx="16.497" cy="16.527" rx="15.597" ry="15.627"/></g></g><g class="bb" transform="matrix(0.1, -0.99, 0.99, 0.1, -434.15, 90.5)"><g class="p" transform="matrix(0.1, 0.99, -0.99, 0.1, 135.38, 422.32)"><ellipse class="al" cx="16.497" cy="16.527" rx="16.497" ry="16.527"/><ellipse class="am" cx="16.497" cy="16.527" rx="15.597" ry="15.627"/></g></g></g><g class="ba" transform="matrix(1, 0, 0, 1, -57.11, -217)"><g class="q" transform="translate(404.75 291)"><ellipse class="al" cx="20.538" cy="20.5" rx="20.538" ry="20.5"/><ellipse class="am" cx="20.538" cy="20.5" rx="19.638" ry="19.6"/></g></g><g class="az" transform="matrix(1, 0, 0, 1, -57.11, -217)"><ellipse class="r" cx="15.497" cy="15.525" rx="15.497" ry="15.525" transform="matrix(0.1, 0.99, -0.99, 0.1, 176.67, 330.31)"/></g><g transform="translate(416.834 141)"><g class="s" transform="translate(0)"><rect class="al" width="8.071" height="95"/><rect class="am" x="1.2" y="1.2" width="5.671" height="92.6"/></g><rect class="l" width="8.071" height="93" transform="translate(0 2)"/></g><g transform="translate(58.107 156)"><g transform="translate(3.506 3.685)"><line class="t" x2="1.818" y2="1.815"/><line class="t" x1="1.818" y2="1.815"/></g><g transform="translate(301.053 5.685)"><line class="t" x2="1.818" y2="1.815"/><line class="t" x1="1.818" y2="1.815"/></g><g transform="translate(11.893 -240)"><g class="ay" transform="matrix(1, 0, 0, 1, -127.11, -133)"><g class="u" transform="translate(411.63 371)"><ellipse class="al" cx="5.009" cy="5" rx="5.009" ry="5"/><ellipse class="am" cx="5.009" cy="5" rx="4.509" ry="4.5"/></g></g><line class="v" x2="5" transform="translate(287.89 245.036) rotate(-45)"/><line class="v" x2="5" transform="translate(287.89 241.5) rotate(45)"/></g><g transform="translate(-221.107 -156)"><g class="ax" transform="matrix(1, 0, 0, 1, 105.89, -217)"><g class="u" transform="translate(178.63 455)"><ellipse class="al" cx="5.009" cy="5" rx="5.009" ry="5"/><ellipse class="am" cx="5.009" cy="5" rx="4.509" ry="4.5"/></g></g><line class="v" x2="5" transform="translate(287.89 245.036) rotate(-45)"/><line class="v" x2="5" transform="translate(287.89 241.5) rotate(45)"/></g></g><g transform="matrix(-0.951, 0.309, -0.309, -0.951, 397.075, 233.305)"><g class="aw" transform="matrix(-0.95, -0.31, 0.31, -0.95, 292.8, 568.62)"><g class="w" transform="matrix(-0.95, 0.31, -0.31, -0.95, 452.5, 449.45)"><path class="al" d="M 22.12300872802734 43.22014617919922 L 22.11130905151367 43.22014617919922 C 19.25046920776367 43.21859741210938 16.47537803649902 42.6578254699707 13.86310863494873 41.55341720581055 C 11.33952808380127 40.48649597167969 9.072648048400879 38.95966720581055 7.125418186187744 37.01533508300781 C 5.17827844619751 35.07109451293945 3.649278402328491 32.80773544311523 2.580868482589722 30.28814697265625 C 1.474988341331482 27.68017578125 0.9134883880615234 24.90968704223633 0.9119383692741394 22.05361557006836 C 0.9103984236717224 19.19871711730957 1.468528389930725 16.42988586425781 2.57084846496582 13.82402610778809 C 3.635748386383057 11.30660629272461 5.161228179931641 9.04560661315918 7.104908466339111 7.103846073150635 C 9.048628807067871 5.162036418914795 11.31232833862305 3.637606143951416 13.83312797546387 2.572896242141724 C 16.44253921508789 1.470766186714172 19.21541786193848 0.9119362235069275 22.07474899291992 0.9119362235069275 L 22.08646774291992 0.9119362235069275 C 24.94730758666992 0.9134862422943115 27.72239875793457 1.474246263504028 30.33466911315918 2.578656196594238 C 32.85824966430664 3.645576238632202 35.12513732910156 5.172406196594238 37.07236862182617 7.11673641204834 C 39.01949691772461 9.060976028442383 40.54850769042969 11.32433605194092 41.61691665649414 13.84392642974854 C 42.7227897644043 16.45189666748047 43.28429794311523 19.22238540649414 43.28584671020508 22.07845687866211 C 43.28738784790039 24.9333553314209 42.7292594909668 27.70218658447266 41.62693786621094 30.30804634094238 C 40.56202697753906 32.82546615600586 39.03654861450195 35.08646774291992 37.09286880493164 37.02823638916016 C 35.14913940429688 38.97003555297852 32.88543701171875 40.49447631835938 30.36462783813477 41.55918502807617 C 27.75521850585938 42.66131591796875 24.98233795166016 43.22014617919922 22.12300872802734 43.22014617919922 Z"/><path class="ao" d="M 22.12300872802734 42.32014465332031 C 24.86138916015625 42.32014465332031 27.51645851135254 41.78517532348633 30.01444816589355 40.73009490966797 C 32.42795944213867 39.7107048034668 34.59546661376953 38.25100708007813 36.456787109375 36.39151763916016 C 38.31795883178711 34.53217697143555 39.77857971191406 32.36742782592773 40.79804992675781 29.95740699768066 C 41.85311889648438 27.4632568359375 42.3873291015625 24.81255531311035 42.38584899902344 22.07893562316895 C 42.38436889648438 19.34409713745117 41.84688949584961 16.69164657592773 40.788330078125 14.19528579711914 C 39.76537704467773 11.78287601470947 38.30118942260742 9.615586280822754 36.43643951416016 7.75360631942749 C 34.57150650024414 5.891456127166748 32.40065765380859 4.429246425628662 29.98419761657715 3.407616138458252 C 27.48327827453613 2.350286245346069 24.825927734375 1.813416242599487 22.08695793151855 1.811936259269714 L 22.07474899291992 1.811936259269714 C 19.33636856079102 1.811936259269714 16.68130874633789 2.346906185150146 14.18330860137939 3.401976108551025 C 11.76980876922607 4.421366214752197 9.602298736572266 5.881076335906982 7.740988254547119 7.740556240081787 C 5.879818439483643 9.599896430969238 4.419208526611328 11.76464653015137 3.399728298187256 14.17466640472412 C 2.344668388366699 16.66881561279297 1.810458421707153 19.31951713562012 1.811938405036926 22.05313682556152 C 1.813418388366699 24.7879753112793 2.350898504257202 27.44042587280273 3.40945839881897 29.93678665161133 C 4.432408332824707 32.34919738769531 5.896598339080811 34.51648712158203 7.761338233947754 36.37846755981445 C 9.62626838684082 38.24062728881836 11.79711818695068 39.70282745361328 14.21357822418213 40.72445678710938 C 16.71449851989746 41.78179550170898 19.37184906005859 42.31866455078125 22.11081886291504 42.32014465332031 L 22.12300872802734 42.32014465332031 M 22.12301063537598 44.12014770507813 C 22.11854362487793 44.12014770507813 22.11528587341309 44.12014770507813 22.11081886291504 44.12014770507813 C 9.912538528442383 44.11354446411133 0.01852839812636375 34.23424530029297 0.01193839684128761 22.05410575866699 C 0.005350810475647449 9.878417015075684 9.882619857788086 0.01193294301629066 22.07474708557129 0.01193294301629066 C 22.07921409606934 0.01193294301629066 22.08249092102051 0.01193381100893021 22.08695793151855 0.01193622406572104 C 34.28524017333984 0.0185262244194746 44.17926025390625 9.897826194763184 44.18584823608398 22.07796669006348 C 44.19243621826172 34.25365447998047 34.31513977050781 44.12014770507813 22.12301063537598 44.12014770507813 Z"/></g></g><g class="av" transform="matrix(-0.95, -0.31, 0.31, -0.95, 292.8, 568.62)"><g class="w" transform="matrix(-0.95, 0.31, -0.31, -0.95, 454.19, 450.3)"><path class="al" d="M 22.12300872802734 43.22014617919922 L 22.11130905151367 43.22014617919922 C 19.25046920776367 43.21859741210938 16.47537803649902 42.6578254699707 13.86310863494873 41.55341720581055 C 11.33952808380127 40.48649597167969 9.072648048400879 38.95966720581055 7.125418186187744 37.01533508300781 C 5.17827844619751 35.07109451293945 3.649278402328491 32.80773544311523 2.580868482589722 30.28814697265625 C 1.474988341331482 27.68017578125 0.9134883880615234 24.90968704223633 0.9119383692741394 22.05361557006836 C 0.9103984236717224 19.19871711730957 1.468528389930725 16.42988586425781 2.57084846496582 13.82402610778809 C 3.635748386383057 11.30660629272461 5.161228179931641 9.04560661315918 7.104908466339111 7.103846073150635 C 9.048628807067871 5.162036418914795 11.31232833862305 3.637606143951416 13.83312797546387 2.572896242141724 C 16.44253921508789 1.470766186714172 19.21541786193848 0.9119362235069275 22.07474899291992 0.9119362235069275 L 22.08646774291992 0.9119362235069275 C 24.94730758666992 0.9134862422943115 27.72239875793457 1.474246263504028 30.33466911315918 2.578656196594238 C 32.85824966430664 3.645576238632202 35.12513732910156 5.172406196594238 37.07236862182617 7.11673641204834 C 39.01949691772461 9.060976028442383 40.54850769042969 11.32433605194092 41.61691665649414 13.84392642974854 C 42.7227897644043 16.45189666748047 43.28429794311523 19.22238540649414 43.28584671020508 22.07845687866211 C 43.28738784790039 24.9333553314209 42.7292594909668 27.70218658447266 41.62693786621094 30.30804634094238 C 40.56202697753906 32.82546615600586 39.03654861450195 35.08646774291992 37.09286880493164 37.02823638916016 C 35.14913940429688 38.97003555297852 32.88543701171875 40.49447631835938 30.36462783813477 41.55918502807617 C 27.75521850585938 42.66131591796875 24.98233795166016 43.22014617919922 22.12300872802734 43.22014617919922 Z"/><path class="ap" d="M 22.12300872802734 42.32014465332031 C 24.86138916015625 42.32014465332031 27.51645851135254 41.78517532348633 30.01444816589355 40.73009490966797 C 32.42795944213867 39.7107048034668 34.59546661376953 38.25100708007813 36.456787109375 36.39151763916016 C 38.31795883178711 34.53217697143555 39.77857971191406 32.36742782592773 40.79804992675781 29.95740699768066 C 41.85311889648438 27.4632568359375 42.3873291015625 24.81255531311035 42.38584899902344 22.07893562316895 C 42.38436889648438 19.34409713745117 41.84688949584961 16.69164657592773 40.788330078125 14.19528579711914 C 39.76537704467773 11.78287601470947 38.30118942260742 9.615586280822754 36.43643951416016 7.75360631942749 C 34.57150650024414 5.891456127166748 32.40065765380859 4.429246425628662 29.98419761657715 3.407616138458252 C 27.48327827453613 2.350286245346069 24.825927734375 1.813416242599487 22.08695793151855 1.811936259269714 L 22.07474899291992 1.811936259269714 C 19.33636856079102 1.811936259269714 16.68130874633789 2.346906185150146 14.18330860137939 3.401976108551025 C 11.76980876922607 4.421366214752197 9.602298736572266 5.881076335906982 7.740988254547119 7.740556240081787 C 5.879818439483643 9.599896430969238 4.419208526611328 11.76464653015137 3.399728298187256 14.17466640472412 C 2.344668388366699 16.66881561279297 1.810458421707153 19.31951713562012 1.811938405036926 22.05313682556152 C 1.813418388366699 24.7879753112793 2.350898504257202 27.44042587280273 3.40945839881897 29.93678665161133 C 4.432408332824707 32.34919738769531 5.896598339080811 34.51648712158203 7.761338233947754 36.37846755981445 C 9.62626838684082 38.24062728881836 11.79711818695068 39.70282745361328 14.21357822418213 40.72445678710938 C 16.71449851989746 41.78179550170898 19.37184906005859 42.31866455078125 22.11081886291504 42.32014465332031 L 22.12300872802734 42.32014465332031 M 22.12301063537598 44.12014770507813 C 22.11854362487793 44.12014770507813 22.11528587341309 44.12014770507813 22.11081886291504 44.12014770507813 C 9.912538528442383 44.11354446411133 0.01852839812636375 34.23424530029297 0.01193839684128761 22.05410575866699 C 0.005350810475647449 9.878417015075684 9.882619857788086 0.01193294301629066 22.07474708557129 0.01193294301629066 C 22.07921409606934 0.01193294301629066 22.08249092102051 0.01193381100893021 22.08695793151855 0.01193622406572104 C 34.28524017333984 0.0185262244194746 44.17926025390625 9.897826194763184 44.18584823608398 22.07796669006348 C 44.19243621826172 34.25365447998047 34.31513977050781 44.12014770507813 22.12301063537598 44.12014770507813 Z"/></g></g></g><g transform="translate(88.672 113.305)"><g class="au" transform="matrix(1, 0, 0, 1, -145.78, -330.31)"><ellipse class="r" cx="15.497" cy="15.525" rx="15.497" ry="15.525" transform="matrix(0.1, 0.99, -0.99, 0.1, 176.67, 330.31)"/></g><g transform="translate(8.055 7.736)"><path class="d" d="M0,5.021S.012,0,4.807,0,10.014,5.03,10.014,5.03l.037,40.037L.041,45.058Z" transform="translate(0 7.071) rotate(-45)"/><path class="x" d="M961.457,619.6h2.889l-2.364.874" transform="translate(-955.538 -612.041)"/><path class="y" d="M959.468,619.134l1.557-.44,2.486.44h0" transform="translate(-954.54 -612.041)"/><path class="z" d="M967.419,629.356v-1.391l1.863.791.677,1.438.339,2.013h.96l.508-2.013.621-.863.9-1.366-4.825-.65-1.046-.141" transform="translate(-955.527 -613.454)"/><path class="z" d="M.057,2.615l1.71,4.907L.007,7.177l4.818.205L3.934,9.688,5.33,12.5H6.748L9.3,9.947,10,6.759,9.74,1.72,2.611.061,1.734,0,.126,0" transform="translate(21.869 28.648) rotate(-45)"/><path class="aa" d="M691.386,712.822" transform="translate(-684.536 -707.041)"/></g></g><g transform="translate(289.08 113.305)"><g class="at" transform="matrix(1, 0, 0, 1, -346.19, -330.31)"><ellipse class="r" cx="15.497" cy="15.525" rx="15.497" ry="15.525" transform="matrix(0.1, 0.99, -0.99, 0.1, 394.07, 330.31)"/></g><g transform="translate(38.974 8.736) rotate(90)"><path class="d" d="M0,5.021S.012,0,4.807,0,10,5.011,10,5.011L9.968,45.048l-10.009.009Z" transform="translate(0 7.084) rotate(-45)"/><path class="x" d="M0,0H2.884L.524.876" transform="translate(5.908 7.577)"/><path class="y" d="M0,.441,1.555,0,4.036.441h0" transform="translate(4.919 6.665)"/><path class="z" d="M0,2.185V.792l1.86.793.676,1.441.338,2.017h.958l.507-2.017.62-.865.9-1.369L1.044.141,0,0" transform="translate(11.87 13.745)"/><path class="z" d="M0,2.614l.046,8.805.77,2.38L4.8,7.373l-.9,2.308,1.4,2.81H6.725L9.3,9.93l.711-3.19L9.762,1.7,2.577.056,1.693,0H.071" transform="translate(21.81 28.719) rotate(-45)"/><path class="aa" d="M0,0" transform="translate(6.837 5.792)"/></g></g><rect class="ab" width="51.094" height="77" transform="translate(262.483 150)"/><g class="ac" transform="translate(153.282 130)"><rect class="al" width="109.201" height="101"/><rect class="am" x="0.85" y="0.85" width="107.501" height="99.3"/></g><rect class="ab" width="51.094" height="77" transform="translate(102.188 150)"/><rect class="ad" width="18.033" height="431" transform="translate(312.575 150)"/><rect class="ae" width="18.033" height="508" transform="translate(402.74)"/><rect class="ad" width="18.033" height="412" transform="translate(89.164 150)"/><rect class="af" width="18.033" height="499" transform="translate(0 28)"/><g transform="translate(274.505 176)"><g class="as" transform="matrix(1, 0, 0, 1, -331.62, -393)"><g class="ag" transform="translate(331.62 393)"><ellipse class="al" cx="14.527" cy="14.5" rx="14.527" ry="14.5"/><ellipse class="am" cx="14.527" cy="14.5" rx="13.477" ry="13.45"/></g></g><ellipse class="ab" cx="3.006" cy="3" rx="3.006" ry="3" transform="translate(12.022 12)"/></g><g transform="translate(113.208 176)"><g class="ar" transform="matrix(1, 0, 0, 1, -170.32, -393)"><g class="ag" transform="translate(170.32 393)"><ellipse class="al" cx="14.527" cy="14.5" rx="14.527" ry="14.5"/><ellipse class="am" cx="14.527" cy="14.5" rx="13.477" ry="13.45"/></g></g><ellipse class="ab" cx="3.006" cy="3" rx="3.006" ry="3" transform="translate(12.022 12)"/></g><g transform="translate(159.293 136)"><ellipse class="ab" cx="3.006" cy="3" rx="3.006" ry="3"/><ellipse class="ab" cx="3.006" cy="3" rx="3.006" ry="3" transform="translate(0 11)"/><ellipse class="ab" cx="3.006" cy="3" rx="3.006" ry="3" transform="translate(0 21)"/><ellipse class="ab" cx="3.006" cy="3" rx="3.006" ry="3" transform="translate(0 31)"/><ellipse class="ab" cx="3.006" cy="3" rx="3.006" ry="3" transform="translate(0 41)"/><ellipse class="ab" cx="3.006" cy="3" rx="3.006" ry="3" transform="translate(0 51)"/><ellipse class="ab" cx="3.006" cy="3" rx="3.006" ry="3" transform="translate(0 61)"/><ellipse class="ab" cx="3.006" cy="3" rx="3.006" ry="3" transform="translate(0 71)"/><ellipse class="ab" cx="3.006" cy="3" rx="3.006" ry="3" transform="translate(0 81)"/><ellipse class="ab" cx="3.006" cy="3" rx="3.006" ry="3" transform="translate(10.018)"/><ellipse class="ab" cx="3.006" cy="3" rx="3.006" ry="3" transform="translate(10.018 11)"/><ellipse class="ab" cx="3.006" cy="3" rx="3.006" ry="3" transform="translate(10.018 21)"/><ellipse class="ab" cx="3.006" cy="3" rx="3.006" ry="3" transform="translate(10.018 31)"/><ellipse class="ab" cx="3.006" cy="3" rx="3.006" ry="3" transform="translate(10.018 41)"/><ellipse class="ab" cx="3.006" cy="3" rx="3.006" ry="3" transform="translate(10.018 51)"/><ellipse class="ab" cx="3.006" cy="3" rx="3.006" ry="3" transform="translate(10.018 61)"/><ellipse class="ab" cx="3.006" cy="3" rx="3.006" ry="3" transform="translate(10.018 71)"/><ellipse class="ab" cx="3.006" cy="3" rx="3.006" ry="3" transform="translate(10.018 81)"/><ellipse class="ab" cx="3.006" cy="3" rx="3.006" ry="3" transform="translate(20.037)"/><ellipse class="ab" cx="3.006" cy="3" rx="3.006" ry="3" transform="translate(20.037 11)"/><ellipse class="ab" cx="3.006" cy="3" rx="3.006" ry="3" transform="translate(20.037 21)"/><ellipse class="ab" cx="3.006" cy="3" rx="3.006" ry="3" transform="translate(20.037 31)"/><ellipse class="ab" cx="3.006" cy="3" rx="3.006" ry="3" transform="translate(20.037 41)"/><ellipse class="ab" cx="3.006" cy="3" rx="3.006" ry="3" transform="translate(20.037 51)"/><ellipse class="ab" cx="3.006" cy="3" rx="3.006" ry="3" transform="translate(20.037 61)"/><ellipse class="ab" cx="3.006" cy="3" rx="3.006" ry="3" transform="translate(20.037 71)"/><ellipse class="ab" cx="3.006" cy="3" rx="3.006" ry="3" transform="translate(20.037 81)"/><ellipse class="ab" cx="3.006" cy="3" rx="3.006" ry="3" transform="translate(30.055)"/><ellipse class="ab" cx="3.006" cy="3" rx="3.006" ry="3" transform="translate(30.055 11)"/><ellipse class="ab" cx="3.006" cy="3" rx="3.006" ry="3" transform="translate(30.055 21)"/><ellipse class="ab" cx="3.006" cy="3" rx="3.006" ry="3" transform="translate(30.055 31)"/><ellipse class="ab" cx="3.006" cy="3" rx="3.006" ry="3" transform="translate(30.055 41)"/><ellipse class="ab" cx="3.006" cy="3" rx="3.006" ry="3" transform="translate(30.055 51)"/><ellipse class="ab" cx="3.006" cy="3" rx="3.006" ry="3" transform="translate(30.055 61)"/><ellipse class="ab" cx="3.006" cy="3" rx="3.006" ry="3" transform="translate(30.055 71)"/><ellipse class="ab" cx="3.006" cy="3" rx="3.006" ry="3" transform="translate(30.055 81)"/><ellipse class="ab" cx="3.006" cy="3" rx="3.006" ry="3" transform="translate(40.074)"/><ellipse class="ab" cx="3.006" cy="3" rx="3.006" ry="3" transform="translate(40.074 11)"/><ellipse class="ab" cx="3.006" cy="3" rx="3.006" ry="3" transform="translate(40.074 21)"/><ellipse class="ab" cx="3.006" cy="3" rx="3.006" ry="3" transform="translate(40.074 31)"/><ellipse class="ab" cx="3.006" cy="3" rx="3.006" ry="3" transform="translate(40.074 41)"/><ellipse class="ab" cx="3.006" cy="3" rx="3.006" ry="3" transform="translate(40.074 51)"/><ellipse class="ab" cx="3.006" cy="3" rx="3.006" ry="3" transform="translate(40.074 61)"/><ellipse class="ab" cx="3.006" cy="3" rx="3.006" ry="3" transform="translate(40.074 71)"/><ellipse class="ab" cx="3.006" cy="3" rx="3.006" ry="3" transform="translate(40.074 81)"/><ellipse class="ab" cx="3.006" cy="3" rx="3.006" ry="3" transform="translate(50.092)"/><ellipse class="ab" cx="3.006" cy="3" rx="3.006" ry="3" transform="translate(50.092 11)"/><ellipse class="ab" cx="3.006" cy="3" rx="3.006" ry="3" transform="translate(50.092 21)"/><ellipse class="ab" cx="3.006" cy="3" rx="3.006" ry="3" transform="translate(50.092 31)"/><ellipse class="ab" cx="3.006" cy="3" rx="3.006" ry="3" transform="translate(50.092 41)"/><ellipse class="ab" cx="3.006" cy="3" rx="3.006" ry="3" transform="translate(50.092 51)"/><ellipse class="ab" cx="3.006" cy="3" rx="3.006" ry="3" transform="translate(50.092 61)"/><ellipse class="ab" cx="3.006" cy="3" rx="3.006" ry="3" transform="translate(50.092 71)"/><ellipse class="ab" cx="3.006" cy="3" rx="3.006" ry="3" transform="translate(50.092 81)"/><ellipse class="ab" cx="3.006" cy="3" rx="3.006" ry="3" transform="translate(60.11)"/><ellipse class="ab" cx="3.006" cy="3" rx="3.006" ry="3" transform="translate(60.11 11)"/><ellipse class="ab" cx="3.006" cy="3" rx="3.006" ry="3" transform="translate(60.11 21)"/><ellipse class="ab" cx="3.006" cy="3" rx="3.006" ry="3" transform="translate(60.11 31)"/><ellipse class="ab" cx="3.006" cy="3" rx="3.006" ry="3" transform="translate(60.11 41)"/><ellipse class="ab" cx="3.006" cy="3" rx="3.006" ry="3" transform="translate(60.11 51)"/><ellipse class="ab" cx="3.006" cy="3" rx="3.006" ry="3" transform="translate(60.11 61)"/><ellipse class="ab" cx="3.006" cy="3" rx="3.006" ry="3" transform="translate(60.11 71)"/><ellipse class="ab" cx="3.006" cy="3" rx="3.006" ry="3" transform="translate(60.11 81)"/><ellipse class="ab" cx="3.006" cy="3" rx="3.006" ry="3" transform="translate(70.129)"/><ellipse class="ab" cx="3.006" cy="3" rx="3.006" ry="3" transform="translate(70.129 11)"/><ellipse class="ab" cx="3.006" cy="3" rx="3.006" ry="3" transform="translate(70.129 21)"/><ellipse class="ab" cx="3.006" cy="3" rx="3.006" ry="3" transform="translate(70.129 31)"/><ellipse class="ab" cx="3.006" cy="3" rx="3.006" ry="3" transform="translate(70.129 41)"/><ellipse class="ab" cx="3.006" cy="3" rx="3.006" ry="3" transform="translate(70.129 51)"/><ellipse class="ab" cx="3.006" cy="3" rx="3.006" ry="3" transform="translate(70.129 61)"/><ellipse class="ab" cx="3.006" cy="3" rx="3.006" ry="3" transform="translate(70.129 71)"/><ellipse class="ab" cx="3.006" cy="3" rx="3.006" ry="3" transform="translate(70.129 81)"/><ellipse class="ab" cx="3.006" cy="3" rx="3.006" ry="3" transform="translate(80.147)"/><ellipse class="ab" cx="3.006" cy="3" rx="3.006" ry="3" transform="translate(80.147 11)"/><ellipse class="ab" cx="3.006" cy="3" rx="3.006" ry="3" transform="translate(80.147 21)"/><ellipse class="ab" cx="3.006" cy="3" rx="3.006" ry="3" transform="translate(80.147 31)"/><ellipse class="ab" cx="3.006" cy="3" rx="3.006" ry="3" transform="translate(80.147 41)"/><ellipse class="ab" cx="3.006" cy="3" rx="3.006" ry="3" transform="translate(80.147 51)"/><ellipse class="ab" cx="3.006" cy="3" rx="3.006" ry="3" transform="translate(80.147 61)"/><ellipse class="ab" cx="3.006" cy="3" rx="3.006" ry="3" transform="translate(80.147 71)"/><ellipse class="ab" cx="3.006" cy="3" rx="3.006" ry="3" transform="translate(80.147 81)"/><ellipse class="ab" cx="3.006" cy="3" rx="3.006" ry="3" transform="translate(90.166)"/><ellipse class="ab" cx="3.006" cy="3" rx="3.006" ry="3" transform="translate(90.166 11)"/><ellipse class="ab" cx="3.006" cy="3" rx="3.006" ry="3" transform="translate(90.166 21)"/><ellipse class="ab" cx="3.006" cy="3" rx="3.006" ry="3" transform="translate(90.166 31)"/><ellipse class="ab" cx="3.006" cy="3" rx="3.006" ry="3" transform="translate(90.166 41)"/><ellipse class="ab" cx="3.006" cy="3" rx="3.006" ry="3" transform="translate(90.166 51)"/><ellipse class="ab" cx="3.006" cy="3" rx="3.006" ry="3" transform="translate(90.166 61)"/><ellipse class="ab" cx="3.006" cy="3" rx="3.006" ry="3" transform="translate(90.166 71)"/><ellipse class="ab" cx="3.006" cy="3" rx="3.006" ry="3" transform="translate(90.166 81)"/></g><path class="v" d="M287.655,244.519" transform="translate(0 1)"/><g transform="translate(-225 -84)"><g class="aq" transform="matrix(1, 0, 0, 1, 167.89, -133)"><g class="u" transform="translate(116.63 371)"><ellipse class="al" cx="5.009" cy="5" rx="5.009" ry="5"/><ellipse class="am" cx="5.009" cy="5" rx="4.509" ry="4.5"/></g></g><line class="v" x2="5" transform="translate(287.89 245.036) rotate(-45)"/><line class="v" x2="5" transform="translate(287.89 241.5) rotate(45)"/></g></g><g transform="translate(515 379)"><rect class="ab" width="112.206" height="152" transform="translate(215.396 57)"/><g class="ah" transform="translate(265.488 186)"><rect class="al" width="12.022" height="12"/><rect class="am" x="0.5" y="0.5" width="11.022" height="11"/></g><ellipse class="ab" cx="132.744" cy="133" rx="132.744" ry="133"/><ellipse class="ab" cx="132.744" cy="133" rx="132.744" ry="133" transform="translate(278.512)"/></g><g transform="translate(679.092 800.959)"><rect class="ai" width="127.65" height="82.155" transform="translate(0 0)"/><path class="aj" d="M0,120.08H64.934V0H0Z" transform="translate(4.327 69.246) rotate(-90)"/><path class="ak" d="M0,108.34H69.252V0H0Z" transform="translate(9.917 73.564) rotate(-90)"/><path class="ad" d="M6.656,0H113.538l5.467,4.658H0Z" transform="translate(124.407 8.8) rotate(180)"/><path class="ad" d="M6.38,0H108.82l5.24,1.366H0Z" transform="translate(7.407 72.197)"/></g></g></svg>