<svg xmlns="http://www.w3.org/2000/svg" xmlns:xlink="http://www.w3.org/1999/xlink" viewBox="0 0 550.115 131.088"><defs><style>.a,.b{fill:#e6dad1;}.b{opacity:0.56;}.c,.e{fill:#9b8c8c;}.c,.d{stroke:#707070;}.d{fill:#675858;}.f,.i{fill:none;}.f{stroke:#ffeadb;stroke-width:1.8px;}.g,.h,.j{stroke:none;}.h{fill:#ffeddf;}.j{fill:#707070;}.k{filter:url(#k);}.l{filter:url(#i);}.m{filter:url(#g);}.n{filter:url(#e);}.o{filter:url(#c);}.p{filter:url(#a);}</style><filter id="a" x="53.912" y="101.022" width="432.745" height="28.281" filterUnits="userSpaceOnUse"><feOffset dy="3" input="SourceAlpha"/><feGaussianBlur stdDeviation="3" result="b"/><feFlood flood-opacity="0.161"/><feComposite operator="in" in2="b"/><feComposite in="SourceGraphic"/></filter><filter id="c" x="39.297" y="32.63" width="460.951" height="74.292" filterUnits="userSpaceOnUse"><feOffset dy="3" input="SourceAlpha"/><feGaussianBlur stdDeviation="9.5" result="d"/><feFlood flood-opacity="0.161"/><feComposite operator="in" in2="d"/><feComposite in="SourceGraphic"/></filter><filter id="e" x="5.615" y="45.092" width="537.959" height="32.075" filterUnits="userSpaceOnUse"><feOffset dy="3" input="SourceAlpha"/><feGaussianBlur stdDeviation="3" result="f"/><feFlood flood-opacity="0.161"/><feComposite operator="in" in2="f"/><feComposite in="SourceGraphic"/></filter><filter id="g" x="5.615" y="34.298" width="537.959" height="32.075" filterUnits="userSpaceOnUse"><feOffset dy="3" input="SourceAlpha"/><feGaussianBlur stdDeviation="3" result="h"/><feFlood flood-opacity="0.161"/><feComposite operator="in" in2="h"/><feComposite in="SourceGraphic"/></filter><filter id="i" x="5.615" y="23.504" width="537.959" height="32.075" filterUnits="userSpaceOnUse"><feOffset dy="3" input="SourceAlpha"/><feGaussianBlur stdDeviation="3" result="j"/><feFlood flood-opacity="0.161"/><feComposite operator="in" in2="j"/><feComposite in="SourceGraphic"/></filter><filter id="k" x="6.457" y="12.71" width="536.583" height="32.075" filterUnits="userSpaceOnUse"><feOffset dy="3" input="SourceAlpha"/><feGaussianBlur stdDeviation="3" result="l"/><feFlood flood-opacity="0.161"/><feComposite operator="in" in2="l"/><feComposite in="SourceGraphic"/></filter></defs><g transform="translate(-411.364 -290.64)"><g transform="translate(474.276 348.769)"><g class="a" transform="translate(5.874 17.292)"><path class="g" d="M 399.0339660644531 55.16660308837891 L 0.7485647797584534 54.76580810546875 L 0.7485647797584534 53.13520431518555 L 0.7485647797584534 52.89455413818359 L 0.5604647994041443 52.74440383911133 L -0.1031352281570435 52.21477890014648 L -0.1031352281570435 1.144253492355347 L 400.5144653320313 0.500809907913208 L 400.49365234375 51.82762145996094 L 399.2191162109375 52.86085510253906 L 399.0339660644531 53.01095581054688 L 399.0339660644531 53.2492561340332 L 399.0339660644531 55.16660308837891 Z"/><path class="h" d="M 398.5339660644531 54.66609954833984 L 398.5339660644531 53.2492561340332 L 398.5339660644531 52.77260589599609 L 398.9042053222656 52.47245407104492 L 399.9937438964844 51.58919906616211 L 400.0142517089844 1.001614570617676 L 0.3968647718429565 1.643451690673828 L 0.3968647718429565 51.97410583496094 L 0.8723647594451904 52.35360336303711 L 1.248564720153809 52.65385437011719 L 1.248564720153809 53.13520431518555 L 1.248564720153809 54.26631164550781 L 398.5339660644531 54.66609954833984 M 399.5339660644531 55.66710662841797 L 0.2485647648572922 55.26530456542969 L 0.2485647648572922 53.13520431518555 L -0.6031352281570435 52.4554557800293 L -0.6031352281570435 0.6450552344322205 L 401.0146789550781 5.221557785262121e-06 L 400.9935607910156 52.06600570678711 L 399.5339660644531 53.2492561340332 L 399.5339660644531 55.66710662841797 Z"/></g><g class="p" transform="matrix(1, 0, 0, 1, -62.91, -58.13)"><g class="a" transform="translate(63.52 107.29)"><path class="g" d="M 412.1132507324219 9.511432647705078 L 0.7764122486114502 9.439764976501465 L 0.7764122486114502 9.123150825500488 L 0.3448333144187927 9.063519477844238 L -0.1031666696071625 9.001622200012207 L -0.1031666696071625 0.2304426580667496 L 413.6412353515625 0.558385968208313 L 413.62158203125 8.932801246643066 L 412.5437316894531 9.084098815917969 L 412.1132507324219 9.144519805908203 L 412.1132507324219 9.511432647705078 Z"/><path class="h" d="M 411.6132507324219 9.011345863342285 L 411.6132507324219 8.709835052490234 L 412.4742431640625 8.588940620422363 L 413.1226196289063 8.497933387756348 L 413.1400756835938 1.057989001274109 L 0.3968333303928375 0.7308392524719238 L 0.3968333303928375 8.565987586975098 L 0.4132543802261353 8.568256378173828 L 1.27641224861145 8.687520027160645 L 1.27641224861145 8.939851760864258 L 411.6132507324219 9.011345863342285 M 412.6132507324219 10.01151943206787 L 0.2764122784137726 9.939677238464355 L 0.2764122784137726 9.558835029602051 L -0.6031666994094849 9.437309265136719 L -0.6031666994094849 -0.2699539959430695 L 414.1424255371094 0.05878285318613052 L 414.1205749511719 9.367677688598633 L 412.6132507324219 9.579257011413574 L 412.6132507324219 10.01151943206787 Z"/></g></g><g class="o" transform="matrix(1, 0, 0, 1, -62.91, -58.13)"><rect class="b" width="403.951" height="17.292" transform="translate(67.8 58.13)"/></g></g><g class="c" transform="translate(417.75 349.288)"><rect class="g" width="534.877" height="10.794"/><rect class="i" x="0.5" y="0.5" width="533.877" height="9.794"/></g><g class="d" transform="translate(417.75 301.254)"><rect class="g" width="18.479" height="58.827"/><rect class="i" x="0.5" y="0.5" width="17.479" height="57.827"/></g><g class="d" transform="translate(940.444 301.254)"><rect class="g" width="13.67" height="58.827"/><rect class="i" x="0.5" y="0.5" width="12.67" height="57.827"/></g><g class="n" transform="matrix(1, 0, 0, 1, 411.36, 290.64)"><g class="e" transform="translate(20.04 51.09)"><path class="g" d="M 513.90283203125 13.57400321960449 L -4.754427433013916 12.46618270874023 L -1.089808106422424 0.5003315210342407 L 511.0503540039063 0.9469938278198242 L 513.90283203125 13.57400321960449 Z"/><path class="j" d="M 513.2770385742188 13.07266426086426 L 510.6506958007813 1.446645617485046 L -0.7201325297355652 1.000654339790344 L -4.078837871551514 11.96762371063232 L 513.2770385742188 13.07266426086426 M 514.5286865234375 14.07534217834473 L -5.430016994476318 12.96474170684814 L -1.459483623504639 8.714039722690359e-06 L 511.4501037597656 0.4473420381546021 L 514.5286865234375 14.07534217834473 Z"/></g></g><g class="m" transform="matrix(1, 0, 0, 1, 411.36, 290.64)"><g class="e" transform="translate(20.04 40.3)"><path class="g" d="M 513.90283203125 13.57400321960449 L -4.754427433013916 12.46618270874023 L -1.089808106422424 0.5003315210342407 L 511.0503540039063 0.9469938278198242 L 513.90283203125 13.57400321960449 Z"/><path class="j" d="M 513.2770385742188 13.07266426086426 L 510.6506958007813 1.446645617485046 L -0.7201325297355652 1.000654339790344 L -4.078837871551514 11.96762371063232 L 513.2770385742188 13.07266426086426 M 514.5286865234375 14.07534217834473 L -5.430016994476318 12.96474170684814 L -1.459483623504639 8.714039722690359e-06 L 511.4501037597656 0.4473420381546021 L 514.5286865234375 14.07534217834473 Z"/></g></g><g class="l" transform="matrix(1, 0, 0, 1, 411.36, 290.64)"><g class="e" transform="translate(20.04 29.5)"><path class="g" d="M 513.90283203125 13.57400321960449 L -4.754427433013916 12.46618270874023 L -1.089808106422424 0.5003315210342407 L 511.0503540039063 0.9469938278198242 L 513.90283203125 13.57400321960449 Z"/><path class="j" d="M 513.2770385742188 13.07266426086426 L 510.6506958007813 1.446645617485046 L -0.7201325297355652 1.000654339790344 L -4.078837871551514 11.96762371063232 L 513.2770385742188 13.07266426086426 M 514.5286865234375 14.07534217834473 L -5.430016994476318 12.96474170684814 L -1.459483623504639 8.714039722690359e-06 L 511.4501037597656 0.4473420381546021 L 514.5286865234375 14.07534217834473 Z"/></g></g><g class="k" transform="matrix(1, 0, 0, 1, 411.36, 290.64)"><g class="e" transform="translate(20.89 18.71)"><path class="g" d="M 512.527099609375 13.57400035858154 L -4.754966735839844 12.46618556976318 L -1.100007176399231 0.5003326535224915 L 509.6822204589844 0.9469926953315735 L 512.527099609375 13.57400035858154 Z"/><path class="j" d="M 511.9016418457031 13.07265853881836 L 509.2822875976563 1.446643352508545 L -0.7300147414207458 1.000656604766846 L -4.079866886138916 11.96762943267822 L 511.9016418457031 13.07265853881836 M 513.152587890625 14.07534217834473 L -5.430066108703613 12.96474170684814 L -1.469999551773071 8.714039722690359e-06 L 510.0822143554688 0.4473420381546021 L 513.152587890625 14.07534217834473 Z"/></g></g><g class="c" transform="translate(412 291)"><rect class="g" width="549.479" height="20.509"/><rect class="i" x="0.5" y="0.5" width="548.479" height="19.509"/></g><path class="f" d="M0,0,549.91.361" transform="translate(411.365 291.54)"/><g class="c" transform="translate(417.002 359.695)"><rect class="g" width="537" height="16"/><rect class="i" x="0.5" y="0.5" width="536" height="15"/></g></g></svg>